solid OpenSCAD_Model
  facet normal -1 0 0
    outer loop
      vertex -69 -69 -8.5
      vertex -69 -69 3.5
      vertex -69 69 -8.5
    endloop
  endfacet
  facet normal -1 0 0
    outer loop
      vertex -69 69 -8.5
      vertex -69 -69 3.5
      vertex -69 69 3.5
    endloop
  endfacet
  facet normal 0 -1 0
    outer loop
      vertex -69 -69 3.5
      vertex -69 -69 -8.5
      vertex 69 -69 -8.5
    endloop
  endfacet
  facet normal 0 -1 0
    outer loop
      vertex 69 -69 3.5
      vertex -69 -69 3.5
      vertex 69 -69 -8.5
    endloop
  endfacet
  facet normal 0 0 -1
    outer loop
      vertex 61.5 30 -8.5
      vertex 61.5 20 -8.5
      vertex -61.5 30 -8.5
    endloop
  endfacet
  facet normal 0 0 -1
    outer loop
      vertex 61.5 61.5 -8.5
      vertex -69 69 -8.5
      vertex 69 69 -8.5
    endloop
  endfacet
  facet normal 0 0 -1
    outer loop
      vertex -69 -69 -8.5
      vertex -69 69 -8.5
      vertex -61.5 -30 -8.5
    endloop
  endfacet
  facet normal 0 0 -1
    outer loop
      vertex -69 -69 -8.5
      vertex -61.5 -30 -8.5
      vertex -61.5 -61.5 -8.5
    endloop
  endfacet
  facet normal 0 0 -1
    outer loop
      vertex -69 -69 -8.5
      vertex -61.5 -61.5 -8.5
      vertex 69 -69 -8.5
    endloop
  endfacet
  facet normal 0 0 -1
    outer loop
      vertex -61.5 61.5 -8.5
      vertex -69 69 -8.5
      vertex 61.5 61.5 -8.5
    endloop
  endfacet
  facet normal 0 0 -1
    outer loop
      vertex 69 -69 -8.5
      vertex 61.5 -61.5 -8.5
      vertex 69 69 -8.5
    endloop
  endfacet
  facet normal 0 0 -1
    outer loop
      vertex 61.5 -61.5 -8.5
      vertex 61.5 -30 -8.5
      vertex 69 69 -8.5
    endloop
  endfacet
  facet normal 0 0 -1
    outer loop
      vertex -61.5 -30 -8.5
      vertex -69 69 -8.5
      vertex -61.5 -20 -8.5
    endloop
  endfacet
  facet normal 0 0 -1
    outer loop
      vertex -69 69 -8.5
      vertex -61.5 20 -8.5
      vertex -61.5 -20 -8.5
    endloop
  endfacet
  facet normal 0 0 -1
    outer loop
      vertex 61.5 -61.5 -8.5
      vertex 69 -69 -8.5
      vertex -61.5 -61.5 -8.5
    endloop
  endfacet
  facet normal 0 0 -1
    outer loop
      vertex 61.5 -30 -8.5
      vertex 61.5 -20 -8.5
      vertex 69 69 -8.5
    endloop
  endfacet
  facet normal 0 0 -1
    outer loop
      vertex 61.5 -20 -8.5
      vertex 61.5 20 -8.5
      vertex 69 69 -8.5
    endloop
  endfacet
  facet normal 0 0 -1
    outer loop
      vertex -61.5 20 -8.5
      vertex -69 69 -8.5
      vertex -61.5 30 -8.5
    endloop
  endfacet
  facet normal 0 0 -1
    outer loop
      vertex -69 69 -8.5
      vertex -61.5 61.5 -8.5
      vertex -61.5 30 -8.5
    endloop
  endfacet
  facet normal 0 0 -1
    outer loop
      vertex -61.5 20 -8.5
      vertex -61.5 30 -8.5
      vertex 61.5 20 -8.5
    endloop
  endfacet
  facet normal 0 0 -1
    outer loop
      vertex 61.5 20 -8.5
      vertex 61.5 30 -8.5
      vertex 69 69 -8.5
    endloop
  endfacet
  facet normal 0 0 -1
    outer loop
      vertex 61.5 30 -8.5
      vertex 61.5 61.5 -8.5
      vertex 69 69 -8.5
    endloop
  endfacet
  facet normal 0 0 -1
    outer loop
      vertex 61.5 -20 -8.5
      vertex 61.5 -30 -8.5
      vertex -61.5 -20 -8.5
    endloop
  endfacet
  facet normal 0 0 -1
    outer loop
      vertex -61.5 -30 -8.5
      vertex -61.5 -20 -8.5
      vertex 61.5 -30 -8.5
    endloop
  endfacet
  facet normal 0 1 0
    outer loop
      vertex -69 69 -8.5
      vertex -69 69 3.5
      vertex 69 69 -8.5
    endloop
  endfacet
  facet normal 0 1 0
    outer loop
      vertex 69 69 -8.5
      vertex -69 69 3.5
      vertex 69 69 3.5
    endloop
  endfacet
  facet normal 0 0 1
    outer loop
      vertex -65.5 -65.5 3.5
      vertex -69 -69 3.5
      vertex 69 -69 3.5
    endloop
  endfacet
  facet normal 0 0 1
    outer loop
      vertex -65.5 65.5 3.5
      vertex -69 69 3.5
      vertex -65.5 -65.5 3.5
    endloop
  endfacet
  facet normal 0 0 1
    outer loop
      vertex 65.5 -65.5 3.5
      vertex -65.5 -65.5 3.5
      vertex 69 -69 3.5
    endloop
  endfacet
  facet normal 0 0 1
    outer loop
      vertex -69 69 3.5
      vertex -69 -69 3.5
      vertex -65.5 -65.5 3.5
    endloop
  endfacet
  facet normal 0 0 1
    outer loop
      vertex 69 69 3.5
      vertex -69 69 3.5
      vertex -65.5 65.5 3.5
    endloop
  endfacet
  facet normal 0 0 1
    outer loop
      vertex 69 69 3.5
      vertex -65.5 65.5 3.5
      vertex -61.0418 65.5 3.5
    endloop
  endfacet
  facet normal 0 0 1
    outer loop
      vertex -58.9582 65.5 3.5
      vertex -61.0418 65.5 3.5
      vertex -60.908 65.418 3.5
    endloop
  endfacet
  facet normal 0 0 1
    outer loop
      vertex -59.092 65.418 3.5
      vertex -60.908 65.418 3.5
      vertex -60.618 65.2979 3.5
    endloop
  endfacet
  facet normal 0 0 1
    outer loop
      vertex -59.382 65.2979 3.5
      vertex -60.618 65.2979 3.5
      vertex -60.3129 65.2246 3.5
    endloop
  endfacet
  facet normal 0 0 1
    outer loop
      vertex -59.6871 65.2246 3.5
      vertex -60.3129 65.2246 3.5
      vertex -60 65.2 3.5
    endloop
  endfacet
  facet normal 0 0 1
    outer loop
      vertex 60.908 65.418 3.5
      vertex 61.0418 65.5 3.5
      vertex 60.618 65.2979 3.5
    endloop
  endfacet
  facet normal 0 0 1
    outer loop
      vertex -59.382 65.2979 3.5
      vertex -59.092 65.418 3.5
      vertex -60.618 65.2979 3.5
    endloop
  endfacet
  facet normal 0 0 1
    outer loop
      vertex -59.092 65.418 3.5
      vertex -58.9582 65.5 3.5
      vertex -60.908 65.418 3.5
    endloop
  endfacet
  facet normal 0 0 1
    outer loop
      vertex 69 69 3.5
      vertex -61.0418 65.5 3.5
      vertex -58.9582 65.5 3.5
    endloop
  endfacet
  facet normal 0 0 1
    outer loop
      vertex 69 69 3.5
      vertex 58.9582 65.5 3.5
      vertex 59.092 65.418 3.5
    endloop
  endfacet
  facet normal 0 0 1
    outer loop
      vertex 69 69 3.5
      vertex 59.092 65.418 3.5
      vertex 59.382 65.2979 3.5
    endloop
  endfacet
  facet normal 0 0 1
    outer loop
      vertex 69 69 3.5
      vertex 59.382 65.2979 3.5
      vertex 59.6871 65.2246 3.5
    endloop
  endfacet
  facet normal 0 0 1
    outer loop
      vertex 69 69 3.5
      vertex 59.6871 65.2246 3.5
      vertex 60 65.2 3.5
    endloop
  endfacet
  facet normal 0 0 1
    outer loop
      vertex 69 69 3.5
      vertex 60 65.2 3.5
      vertex 60.3129 65.2246 3.5
    endloop
  endfacet
  facet normal 0 0 1
    outer loop
      vertex 61.0418 65.5 3.5
      vertex 60.3129 65.2246 3.5
      vertex 60.618 65.2979 3.5
    endloop
  endfacet
  facet normal 0 0 1
    outer loop
      vertex 61.0418 65.5 3.5
      vertex 65.5 65.5 3.5
      vertex 69 69 3.5
    endloop
  endfacet
  facet normal 0 0 1
    outer loop
      vertex 69 69 3.5
      vertex 60.3129 65.2246 3.5
      vertex 61.0418 65.5 3.5
    endloop
  endfacet
  facet normal 0 0 1
    outer loop
      vertex 69 69 3.5
      vertex 65.5 65.5 3.5
      vertex 69 -69 3.5
    endloop
  endfacet
  facet normal 0 0 1
    outer loop
      vertex -59.6871 65.2246 3.5
      vertex -59.382 65.2979 3.5
      vertex -60.3129 65.2246 3.5
    endloop
  endfacet
  facet normal 0 0 1
    outer loop
      vertex -58.9582 65.5 3.5
      vertex 58.9582 65.5 3.5
      vertex 69 69 3.5
    endloop
  endfacet
  facet normal 0 0 1
    outer loop
      vertex 65.5 65.5 3.5
      vertex 65.5 -65.5 3.5
      vertex 69 -69 3.5
    endloop
  endfacet
  facet normal 1 0 0
    outer loop
      vertex 69 -69 3.5
      vertex 69 -69 -8.5
      vertex 69 69 -8.5
    endloop
  endfacet
  facet normal 1 0 0
    outer loop
      vertex 69 69 3.5
      vertex 69 -69 3.5
      vertex 69 69 -8.5
    endloop
  endfacet
  facet normal 1 0 0
    outer loop
      vertex -61.5 -30 -8.5
      vertex -61.5 -30 -3.5
      vertex -61.5 -61.5 -3.5
    endloop
  endfacet
  facet normal 1 0 0
    outer loop
      vertex -61.5 -61.5 -8.5
      vertex -61.5 -30 -8.5
      vertex -61.5 -61.5 -3.5
    endloop
  endfacet
  facet normal 0 -1 0
    outer loop
      vertex -61.5 -30 -3.5
      vertex -61.5 -30 -8.5
      vertex 61.5 -30 -8.5
    endloop
  endfacet
  facet normal 0 -1 0
    outer loop
      vertex 25 -30 -3.5
      vertex -25 -30 -3.5
      vertex 61.5 -30 -8.5
    endloop
  endfacet
  facet normal 0 -1 0
    outer loop
      vertex 45 -30 -3.5
      vertex 25 -30 -3.5
      vertex 61.5 -30 -8.5
    endloop
  endfacet
  facet normal 0 -1 0
    outer loop
      vertex 61.5 -30 -3.5
      vertex 45 -30 -3.5
      vertex 61.5 -30 -8.5
    endloop
  endfacet
  facet normal 0 -1 0
    outer loop
      vertex 45 -30 3.5
      vertex 25 -30 -3.5
      vertex 45 -30 -3.5
    endloop
  endfacet
  facet normal 0 -1 0
    outer loop
      vertex -25 -30 -3.5
      vertex -45 -30 -3.5
      vertex 61.5 -30 -8.5
    endloop
  endfacet
  facet normal 0 -1 0
    outer loop
      vertex -45 -30 -3.5
      vertex -61.5 -30 -3.5
      vertex 61.5 -30 -8.5
    endloop
  endfacet
  facet normal 0 -1 0
    outer loop
      vertex -25 -30 -3.5
      vertex -25 -30 3.5
      vertex -45 -30 -3.5
    endloop
  endfacet
  facet normal 0 -1 0
    outer loop
      vertex -45 -30 3.5
      vertex -45 -30 -3.5
      vertex -25 -30 3.5
    endloop
  endfacet
  facet normal 0 -1 0
    outer loop
      vertex 25 -30 3.5
      vertex 25 -30 -3.5
      vertex 45 -30 3.5
    endloop
  endfacet
  facet normal -1 0 0
    outer loop
      vertex 61.5 -30 -3.5
      vertex 61.5 -30 -8.5
      vertex 61.5 -61.5 -3.5
    endloop
  endfacet
  facet normal -1 0 0
    outer loop
      vertex 61.5 -61.5 -3.5
      vertex 61.5 -30 -8.5
      vertex 61.5 -61.5 -8.5
    endloop
  endfacet
  facet normal 0 1 0
    outer loop
      vertex 61.5 -61.5 -3.5
      vertex 61.5 -61.5 -8.5
      vertex -61.5 -61.5 -3.5
    endloop
  endfacet
  facet normal 0 1 0
    outer loop
      vertex -61.5 -61.5 -3.5
      vertex 61.5 -61.5 -8.5
      vertex -61.5 -61.5 -8.5
    endloop
  endfacet
  facet normal 1 0 0
    outer loop
      vertex -61.5 20 -8.5
      vertex -61.5 20 -3.5
      vertex -61.5 -20 -3.5
    endloop
  endfacet
  facet normal 1 0 0
    outer loop
      vertex -61.5 -20 -8.5
      vertex -61.5 20 -8.5
      vertex -61.5 -20 -3.5
    endloop
  endfacet
  facet normal 0 -1 0
    outer loop
      vertex 61.5 20 -8.5
      vertex 61.5 20 -3.5
      vertex -61.5 20 -3.5
    endloop
  endfacet
  facet normal 0 -1 0
    outer loop
      vertex -61.5 20 -8.5
      vertex 61.5 20 -8.5
      vertex -61.5 20 -3.5
    endloop
  endfacet
  facet normal -1 0 0
    outer loop
      vertex 61.5 20 -3.5
      vertex 61.5 20 -8.5
      vertex 61.5 -20 -3.5
    endloop
  endfacet
  facet normal -1 0 0
    outer loop
      vertex 61.5 -20 -3.5
      vertex 61.5 20 -8.5
      vertex 61.5 -20 -8.5
    endloop
  endfacet
  facet normal 0 1 0
    outer loop
      vertex -45 -20 -3.5
      vertex -45 -20 3.5
      vertex -42.6 -20 3.5
    endloop
  endfacet
  facet normal 0 1 0
    outer loop
      vertex -45 -20 -3.5
      vertex -42.6 -20 3.5
      vertex -42.6 -20 -3.5
    endloop
  endfacet
  facet normal 0 1 0
    outer loop
      vertex -45 -20 -3.5
      vertex 61.5 -20 -8.5
      vertex -61.5 -20 -3.5
    endloop
  endfacet
  facet normal 0 1 0
    outer loop
      vertex -42.6 -20 -3.5
      vertex 61.5 -20 -8.5
      vertex -45 -20 -3.5
    endloop
  endfacet
  facet normal 0 1 0
    outer loop
      vertex 42.6 -20 -3.5
      vertex 42.6 -20 3.5
      vertex 45 -20 3.5
    endloop
  endfacet
  facet normal 0 1 0
    outer loop
      vertex 42.6 -20 -3.5
      vertex 45 -20 3.5
      vertex 45 -20 -3.5
    endloop
  endfacet
  facet normal 0 1 0
    outer loop
      vertex 42.6 -20 -3.5
      vertex 61.5 -20 -8.5
      vertex -42.6 -20 -3.5
    endloop
  endfacet
  facet normal 0 1 0
    outer loop
      vertex 45 -20 -3.5
      vertex 61.5 -20 -3.5
      vertex 61.5 -20 -8.5
    endloop
  endfacet
  facet normal 0 1 0
    outer loop
      vertex 45 -20 -3.5
      vertex 61.5 -20 -8.5
      vertex 42.6 -20 -3.5
    endloop
  endfacet
  facet normal 0 1 0
    outer loop
      vertex 61.5 -20 -8.5
      vertex -61.5 -20 -8.5
      vertex -61.5 -20 -3.5
    endloop
  endfacet
  facet normal 1 0 0
    outer loop
      vertex -61.5 61.5 -8.5
      vertex -61.5 61.5 -3.5
      vertex -61.5 30 -3.5
    endloop
  endfacet
  facet normal 1 0 0
    outer loop
      vertex -61.5 30 -8.5
      vertex -61.5 61.5 -8.5
      vertex -61.5 30 -3.5
    endloop
  endfacet
  facet normal 0 -1 0
    outer loop
      vertex 61.5 61.5 -8.5
      vertex 61.5 61.5 -3.5
      vertex -61.5 61.5 -3.5
    endloop
  endfacet
  facet normal 0 -1 0
    outer loop
      vertex -61.5 61.5 -8.5
      vertex 61.5 61.5 -8.5
      vertex -61.5 61.5 -3.5
    endloop
  endfacet
  facet normal -1 0 0
    outer loop
      vertex 61.5 61.5 -3.5
      vertex 61.5 61.5 -8.5
      vertex 61.5 30 -3.5
    endloop
  endfacet
  facet normal -1 0 0
    outer loop
      vertex 61.5 30 -3.5
      vertex 61.5 61.5 -8.5
      vertex 61.5 30 -8.5
    endloop
  endfacet
  facet normal 0 1 0
    outer loop
      vertex -61.5 30 -8.5
      vertex -61.5 30 -3.5
      vertex 61.5 30 -8.5
    endloop
  endfacet
  facet normal 0 1 0
    outer loop
      vertex 61.5 30 -8.5
      vertex -61.5 30 -3.5
      vertex -45 30 -3.5
    endloop
  endfacet
  facet normal 0 1 0
    outer loop
      vertex -25 30 -3.5
      vertex -45 30 -3.5
      vertex -45 30 3.5
    endloop
  endfacet
  facet normal 0 1 0
    outer loop
      vertex 61.5 30 -8.5
      vertex -45 30 -3.5
      vertex -25 30 -3.5
    endloop
  endfacet
  facet normal 0 1 0
    outer loop
      vertex 45 30 -3.5
      vertex 61.5 30 -8.5
      vertex 25 30 -3.5
    endloop
  endfacet
  facet normal 0 1 0
    outer loop
      vertex 25 30 3.5
      vertex 45 30 -3.5
      vertex 25 30 -3.5
    endloop
  endfacet
  facet normal 0 1 0
    outer loop
      vertex 45 30 -3.5
      vertex 25 30 3.5
      vertex 45 30 3.5
    endloop
  endfacet
  facet normal 0 1 0
    outer loop
      vertex 61.5 30 -3.5
      vertex 61.5 30 -8.5
      vertex 45 30 -3.5
    endloop
  endfacet
  facet normal 0 1 0
    outer loop
      vertex -25 30 -3.5
      vertex -45 30 3.5
      vertex -25 30 3.5
    endloop
  endfacet
  facet normal 0 1 0
    outer loop
      vertex 25 30 -3.5
      vertex 61.5 30 -8.5
      vertex -25 30 -3.5
    endloop
  endfacet
  facet normal 1 0 0
    outer loop
      vertex -65.5 65.5 -3.5
      vertex -65.5 65.5 3.5
      vertex -65.5 -65.5 3.5
    endloop
  endfacet
  facet normal 1 0 0
    outer loop
      vertex -65.5 -65.5 -3.5
      vertex -65.5 65.5 -3.5
      vertex -65.5 -65.5 3.5
    endloop
  endfacet
  facet normal 0 1 0
    outer loop
      vertex 65.5 -65.5 3.5
      vertex 65.5 -65.5 -3.5
      vertex -65.5 -65.5 3.5
    endloop
  endfacet
  facet normal 0 1 0
    outer loop
      vertex -65.5 -65.5 3.5
      vertex 65.5 -65.5 -3.5
      vertex -65.5 -65.5 -3.5
    endloop
  endfacet
  facet normal -1 0 0
    outer loop
      vertex 65.5 65.5 3.5
      vertex 65.5 65.5 -3.5
      vertex 65.5 -65.5 3.5
    endloop
  endfacet
  facet normal -1 0 0
    outer loop
      vertex 65.5 -65.5 3.5
      vertex 65.5 65.5 -3.5
      vertex 65.5 -65.5 -3.5
    endloop
  endfacet
  facet normal 0 -1 0
    outer loop
      vertex 65.5 65.5 -3.5
      vertex 65.5 65.5 3.5
      vertex 61.0418 65.5 3.5
    endloop
  endfacet
  facet normal 0 -1 0
    outer loop
      vertex 61.0418 65.5 -3.5
      vertex 65.5 65.5 -3.5
      vertex 61.0418 65.5 3.5
    endloop
  endfacet
  facet normal 0.522498 -0.852641 0
    outer loop
      vertex 60.908 65.418 3.5
      vertex 60.908 65.418 -3.5
      vertex 61.0418 65.5 -3.5
    endloop
  endfacet
  facet normal 0.522498 -0.852641 0
    outer loop
      vertex 61.0418 65.5 3.5
      vertex 60.908 65.418 3.5
      vertex 61.0418 65.5 -3.5
    endloop
  endfacet
  facet normal 0.382683 -0.92388 0
    outer loop
      vertex 60.618 65.2979 3.5
      vertex 60.618 65.2979 -3.5
      vertex 60.908 65.418 -3.5
    endloop
  endfacet
  facet normal 0.382683 -0.92388 0
    outer loop
      vertex 60.908 65.418 3.5
      vertex 60.618 65.2979 3.5
      vertex 60.908 65.418 -3.5
    endloop
  endfacet
  facet normal 0.233446 -0.97237 0
    outer loop
      vertex 60.3129 65.2246 3.5
      vertex 60.3129 65.2246 -3.5
      vertex 60.618 65.2979 -3.5
    endloop
  endfacet
  facet normal 0.233446 -0.97237 0
    outer loop
      vertex 60.618 65.2979 3.5
      vertex 60.3129 65.2246 3.5
      vertex 60.618 65.2979 -3.5
    endloop
  endfacet
  facet normal 0.0784581 -0.996917 0
    outer loop
      vertex 60 65.2 3.5
      vertex 60 65.2 -3.5
      vertex 60.3129 65.2246 -3.5
    endloop
  endfacet
  facet normal 0.0784581 -0.996917 0
    outer loop
      vertex 60.3129 65.2246 3.5
      vertex 60 65.2 3.5
      vertex 60.3129 65.2246 -3.5
    endloop
  endfacet
  facet normal -0.0784581 -0.996917 0
    outer loop
      vertex 59.6871 65.2246 3.5
      vertex 59.6871 65.2246 -3.5
      vertex 60 65.2 -3.5
    endloop
  endfacet
  facet normal -0.0784581 -0.996917 0
    outer loop
      vertex 60 65.2 3.5
      vertex 59.6871 65.2246 3.5
      vertex 60 65.2 -3.5
    endloop
  endfacet
  facet normal -0.233446 -0.97237 0
    outer loop
      vertex 59.382 65.2979 3.5
      vertex 59.382 65.2979 -3.5
      vertex 59.6871 65.2246 -3.5
    endloop
  endfacet
  facet normal -0.233446 -0.97237 0
    outer loop
      vertex 59.6871 65.2246 3.5
      vertex 59.382 65.2979 3.5
      vertex 59.6871 65.2246 -3.5
    endloop
  endfacet
  facet normal -0.382683 -0.92388 0
    outer loop
      vertex 59.092 65.418 3.5
      vertex 59.092 65.418 -3.5
      vertex 59.382 65.2979 -3.5
    endloop
  endfacet
  facet normal -0.382683 -0.92388 0
    outer loop
      vertex 59.382 65.2979 3.5
      vertex 59.092 65.418 3.5
      vertex 59.382 65.2979 -3.5
    endloop
  endfacet
  facet normal -0.522498 -0.852641 0
    outer loop
      vertex 58.9582 65.5 3.5
      vertex 58.9582 65.5 -3.5
      vertex 59.092 65.418 -3.5
    endloop
  endfacet
  facet normal -0.522498 -0.852641 0
    outer loop
      vertex 59.092 65.418 3.5
      vertex 58.9582 65.5 3.5
      vertex 59.092 65.418 -3.5
    endloop
  endfacet
  facet normal 0 -1 0
    outer loop
      vertex 58.9582 65.5 -3.5
      vertex 58.9582 65.5 3.5
      vertex -58.9582 65.5 3.5
    endloop
  endfacet
  facet normal 0 -1 0
    outer loop
      vertex -58.9582 65.5 -3.5
      vertex 58.9582 65.5 -3.5
      vertex -58.9582 65.5 3.5
    endloop
  endfacet
  facet normal 0.522498 -0.852641 0
    outer loop
      vertex -59.092 65.418 3.5
      vertex -59.092 65.418 -3.5
      vertex -58.9582 65.5 -3.5
    endloop
  endfacet
  facet normal 0.522498 -0.852641 0
    outer loop
      vertex -58.9582 65.5 3.5
      vertex -59.092 65.418 3.5
      vertex -58.9582 65.5 -3.5
    endloop
  endfacet
  facet normal 0.382683 -0.92388 0
    outer loop
      vertex -59.382 65.2979 3.5
      vertex -59.382 65.2979 -3.5
      vertex -59.092 65.418 -3.5
    endloop
  endfacet
  facet normal 0.382683 -0.92388 0
    outer loop
      vertex -59.092 65.418 3.5
      vertex -59.382 65.2979 3.5
      vertex -59.092 65.418 -3.5
    endloop
  endfacet
  facet normal 0.233446 -0.97237 0
    outer loop
      vertex -59.6871 65.2246 3.5
      vertex -59.6871 65.2246 -3.5
      vertex -59.382 65.2979 -3.5
    endloop
  endfacet
  facet normal 0.233446 -0.97237 0
    outer loop
      vertex -59.382 65.2979 3.5
      vertex -59.6871 65.2246 3.5
      vertex -59.382 65.2979 -3.5
    endloop
  endfacet
  facet normal 0.0784581 -0.996917 0
    outer loop
      vertex -60 65.2 3.5
      vertex -60 65.2 -3.5
      vertex -59.6871 65.2246 -3.5
    endloop
  endfacet
  facet normal 0.0784581 -0.996917 0
    outer loop
      vertex -59.6871 65.2246 3.5
      vertex -60 65.2 3.5
      vertex -59.6871 65.2246 -3.5
    endloop
  endfacet
  facet normal -0.0784581 -0.996917 0
    outer loop
      vertex -60.3129 65.2246 3.5
      vertex -60.3129 65.2246 -3.5
      vertex -60 65.2 -3.5
    endloop
  endfacet
  facet normal -0.0784581 -0.996917 0
    outer loop
      vertex -60 65.2 3.5
      vertex -60.3129 65.2246 3.5
      vertex -60 65.2 -3.5
    endloop
  endfacet
  facet normal -0.233446 -0.97237 0
    outer loop
      vertex -60.618 65.2979 3.5
      vertex -60.618 65.2979 -3.5
      vertex -60.3129 65.2246 -3.5
    endloop
  endfacet
  facet normal -0.233446 -0.97237 0
    outer loop
      vertex -60.3129 65.2246 3.5
      vertex -60.618 65.2979 3.5
      vertex -60.3129 65.2246 -3.5
    endloop
  endfacet
  facet normal -0.382683 -0.92388 0
    outer loop
      vertex -60.908 65.418 3.5
      vertex -60.908 65.418 -3.5
      vertex -60.618 65.2979 -3.5
    endloop
  endfacet
  facet normal -0.382683 -0.92388 0
    outer loop
      vertex -60.618 65.2979 3.5
      vertex -60.908 65.418 3.5
      vertex -60.618 65.2979 -3.5
    endloop
  endfacet
  facet normal -0.522498 -0.852641 0
    outer loop
      vertex -61.0418 65.5 3.5
      vertex -61.0418 65.5 -3.5
      vertex -60.908 65.418 -3.5
    endloop
  endfacet
  facet normal -0.522498 -0.852641 0
    outer loop
      vertex -60.908 65.418 3.5
      vertex -61.0418 65.5 3.5
      vertex -60.908 65.418 -3.5
    endloop
  endfacet
  facet normal 0 -1 0
    outer loop
      vertex -61.0418 65.5 -3.5
      vertex -61.0418 65.5 3.5
      vertex -65.5 65.5 3.5
    endloop
  endfacet
  facet normal 0 -1 0
    outer loop
      vertex -65.5 65.5 -3.5
      vertex -61.0418 65.5 -3.5
      vertex -65.5 65.5 3.5
    endloop
  endfacet
  facet normal 0 0 1
    outer loop
      vertex 61.5 61.5 -3.5
      vertex 65.5 65.5 -3.5
      vertex 61.0418 65.5 -3.5
    endloop
  endfacet
  facet normal 0 0 1
    outer loop
      vertex 28.5858 27.9858 -3.5
      vertex 25 28.1 -3.5
      vertex 28.8244 27.782 -3.5
    endloop
  endfacet
  facet normal 0 0 1
    outer loop
      vertex 61.5 30 -3.5
      vertex 45 30 -3.5
      vertex 45 28.1 -3.5
    endloop
  endfacet
  facet normal 0 0 1
    outer loop
      vertex 28.4882 28.1 -3.5
      vertex 25 28.1 -3.5
      vertex 28.5858 27.9858 -3.5
    endloop
  endfacet
  facet normal 0 0 1
    outer loop
      vertex 45 -30 -3.5
      vertex 61.5 -30 -3.5
      vertex 45 -20 -3.5
    endloop
  endfacet
  facet normal 0 0 1
    outer loop
      vertex -31.5118 28.1 -3.5
      vertex -38.4882 28.1 -3.5
      vertex -31.4142 27.9858 -3.5
    endloop
  endfacet
  facet normal 0 0 1
    outer loop
      vertex 25 30 -3.5
      vertex -25 30 -3.5
      vertex 25 28.1 -3.5
    endloop
  endfacet
  facet normal 0 0 1
    outer loop
      vertex -61.5 61.5 -3.5
      vertex -60.908 65.418 -3.5
      vertex -61.0418 65.5 -3.5
    endloop
  endfacet
  facet normal 0 0 1
    outer loop
      vertex -61.5 61.5 -3.5
      vertex -60.618 65.2979 -3.5
      vertex -60.908 65.418 -3.5
    endloop
  endfacet
  facet normal 0 0 1
    outer loop
      vertex -65.5 65.5 -3.5
      vertex -61.5 61.5 -3.5
      vertex -61.0418 65.5 -3.5
    endloop
  endfacet
  facet normal 0 0 1
    outer loop
      vertex -61.5 61.5 -3.5
      vertex -60.3129 65.2246 -3.5
      vertex -60.618 65.2979 -3.5
    endloop
  endfacet
  facet normal 0 0 1
    outer loop
      vertex -65.5 -65.5 -3.5
      vertex -61.5 -30 -3.5
      vertex -65.5 65.5 -3.5
    endloop
  endfacet
  facet normal 0 0 1
    outer loop
      vertex 61.5 61.5 -3.5
      vertex 61.5 30 -3.5
      vertex 65.5 -65.5 -3.5
    endloop
  endfacet
  facet normal 0 0 1
    outer loop
      vertex 61.5 30 -3.5
      vertex 61.5 20 -3.5
      vertex 65.5 -65.5 -3.5
    endloop
  endfacet
  facet normal 0 0 1
    outer loop
      vertex 61.5 30 -3.5
      vertex 45 28.1 -3.5
      vertex 61.5 20 -3.5
    endloop
  endfacet
  facet normal 0 0 1
    outer loop
      vertex -61.5 -30 -3.5
      vertex -61.5 -20 -3.5
      vertex -65.5 65.5 -3.5
    endloop
  endfacet
  facet normal 0 0 1
    outer loop
      vertex -61.5 -30 -3.5
      vertex -45 -30 -3.5
      vertex -61.5 -20 -3.5
    endloop
  endfacet
  facet normal 0 0 1
    outer loop
      vertex -61.5 -20 -3.5
      vertex -61.5 20 -3.5
      vertex -65.5 65.5 -3.5
    endloop
  endfacet
  facet normal 0 0 1
    outer loop
      vertex 61.5 20 -3.5
      vertex 61.5 -20 -3.5
      vertex 65.5 -65.5 -3.5
    endloop
  endfacet
  facet normal 0 0 1
    outer loop
      vertex 61.5 -61.5 -3.5
      vertex -61.5 -61.5 -3.5
      vertex 65.5 -65.5 -3.5
    endloop
  endfacet
  facet normal 0 0 1
    outer loop
      vertex 61.5 -30 -3.5
      vertex 65.5 -65.5 -3.5
      vertex 61.5 -20 -3.5
    endloop
  endfacet
  facet normal 0 0 1
    outer loop
      vertex 61.5 -30 -3.5
      vertex 61.5 -61.5 -3.5
      vertex 65.5 -65.5 -3.5
    endloop
  endfacet
  facet normal 0 0 1
    outer loop
      vertex 45 -20 -3.5
      vertex 61.5 -30 -3.5
      vertex 61.5 -20 -3.5
    endloop
  endfacet
  facet normal 0 0 1
    outer loop
      vertex -61.5 61.5 -3.5
      vertex -60 65.2 -3.5
      vertex -60.3129 65.2246 -3.5
    endloop
  endfacet
  facet normal 0 0 1
    outer loop
      vertex 28.8244 27.782 -3.5
      vertex 25 28.1 -3.5
      vertex 29.092 27.618 -3.5
    endloop
  endfacet
  facet normal 0 0 1
    outer loop
      vertex -65.5 -65.5 -3.5
      vertex -61.5 -61.5 -3.5
      vertex -61.5 -30 -3.5
    endloop
  endfacet
  facet normal 0 0 1
    outer loop
      vertex -65.5 -65.5 -3.5
      vertex 65.5 -65.5 -3.5
      vertex -61.5 -61.5 -3.5
    endloop
  endfacet
  facet normal 0 0 1
    outer loop
      vertex -61.5 61.5 -3.5
      vertex -59.382 65.2979 -3.5
      vertex -59.6871 65.2246 -3.5
    endloop
  endfacet
  facet normal 0 0 1
    outer loop
      vertex 65.5 -65.5 -3.5
      vertex 65.5 65.5 -3.5
      vertex 61.5 61.5 -3.5
    endloop
  endfacet
  facet normal 0 0 1
    outer loop
      vertex 39.092 27.618 -3.5
      vertex 31.5118 28.1 -3.5
      vertex 39.382 27.4979 -3.5
    endloop
  endfacet
  facet normal 0 0 1
    outer loop
      vertex 38.8244 27.782 -3.5
      vertex 31.5118 28.1 -3.5
      vertex 39.092 27.618 -3.5
    endloop
  endfacet
  facet normal 0 0 1
    outer loop
      vertex 38.5858 27.9858 -3.5
      vertex 31.5118 28.1 -3.5
      vertex 38.8244 27.782 -3.5
    endloop
  endfacet
  facet normal 0 0 1
    outer loop
      vertex 38.4882 28.1 -3.5
      vertex 31.5118 28.1 -3.5
      vertex 38.5858 27.9858 -3.5
    endloop
  endfacet
  facet normal 0 0 1
    outer loop
      vertex -61.5 61.5 -3.5
      vertex -59.6871 65.2246 -3.5
      vertex -60 65.2 -3.5
    endloop
  endfacet
  facet normal 0 0 1
    outer loop
      vertex -61.5 61.5 -3.5
      vertex -59.092 65.418 -3.5
      vertex -59.382 65.2979 -3.5
    endloop
  endfacet
  facet normal 0 0 1
    outer loop
      vertex -61.5 61.5 -3.5
      vertex -58.9582 65.5 -3.5
      vertex -59.092 65.418 -3.5
    endloop
  endfacet
  facet normal 0 0 1
    outer loop
      vertex -61.5 61.5 -3.5
      vertex 58.9582 65.5 -3.5
      vertex -58.9582 65.5 -3.5
    endloop
  endfacet
  facet normal 0 0 1
    outer loop
      vertex -61.5 61.5 -3.5
      vertex 59.092 65.418 -3.5
      vertex 58.9582 65.5 -3.5
    endloop
  endfacet
  facet normal 0 0 1
    outer loop
      vertex -61.5 61.5 -3.5
      vertex 59.382 65.2979 -3.5
      vertex 59.092 65.418 -3.5
    endloop
  endfacet
  facet normal 0 0 1
    outer loop
      vertex -61.5 61.5 -3.5
      vertex 59.6871 65.2246 -3.5
      vertex 59.382 65.2979 -3.5
    endloop
  endfacet
  facet normal 0 0 1
    outer loop
      vertex -61.5 61.5 -3.5
      vertex 60 65.2 -3.5
      vertex 59.6871 65.2246 -3.5
    endloop
  endfacet
  facet normal 0 0 1
    outer loop
      vertex 60.908 65.418 -3.5
      vertex 61.5 61.5 -3.5
      vertex 61.0418 65.5 -3.5
    endloop
  endfacet
  facet normal 0 0 1
    outer loop
      vertex 60.618 65.2979 -3.5
      vertex 61.5 61.5 -3.5
      vertex 60.908 65.418 -3.5
    endloop
  endfacet
  facet normal 0 0 1
    outer loop
      vertex 60.3129 65.2246 -3.5
      vertex 61.5 61.5 -3.5
      vertex 60.618 65.2979 -3.5
    endloop
  endfacet
  facet normal 0 0 1
    outer loop
      vertex 60 65.2 -3.5
      vertex 61.5 61.5 -3.5
      vertex 60.3129 65.2246 -3.5
    endloop
  endfacet
  facet normal 0 0 1
    outer loop
      vertex -61.5 61.5 -3.5
      vertex 61.5 61.5 -3.5
      vertex 60 65.2 -3.5
    endloop
  endfacet
  facet normal 0 0 1
    outer loop
      vertex -45 30 -3.5
      vertex -61.5 30 -3.5
      vertex -45 28.1 -3.5
    endloop
  endfacet
  facet normal 0 0 1
    outer loop
      vertex -61.5 20 -3.5
      vertex -61.5 30 -3.5
      vertex -65.5 65.5 -3.5
    endloop
  endfacet
  facet normal 0 0 1
    outer loop
      vertex -45 -20 -3.5
      vertex -61.5 -20 -3.5
      vertex -45 -30 -3.5
    endloop
  endfacet
  facet normal 0 0 1
    outer loop
      vertex -61.5 30 -3.5
      vertex -61.5 61.5 -3.5
      vertex -65.5 65.5 -3.5
    endloop
  endfacet
  facet normal 0 0 1
    outer loop
      vertex -61.5 20 -3.5
      vertex -45 28.1 -3.5
      vertex -61.5 30 -3.5
    endloop
  endfacet
  facet normal 0 0 1
    outer loop
      vertex -61.5 20 -3.5
      vertex -41.5118 28.1 -3.5
      vertex -45 28.1 -3.5
    endloop
  endfacet
  facet normal 0 0 1
    outer loop
      vertex -61.5 20 -3.5
      vertex -41.4142 27.9858 -3.5
      vertex -41.5118 28.1 -3.5
    endloop
  endfacet
  facet normal 0 0 1
    outer loop
      vertex -61.5 20 -3.5
      vertex -41.1756 27.782 -3.5
      vertex -41.4142 27.9858 -3.5
    endloop
  endfacet
  facet normal 0 0 1
    outer loop
      vertex -61.5 20 -3.5
      vertex -40.908 27.618 -3.5
      vertex -41.1756 27.782 -3.5
    endloop
  endfacet
  facet normal 0 0 1
    outer loop
      vertex -61.5 20 -3.5
      vertex -40.618 27.4979 -3.5
      vertex -40.908 27.618 -3.5
    endloop
  endfacet
  facet normal 0 0 1
    outer loop
      vertex -61.5 20 -3.5
      vertex -40.3129 27.4246 -3.5
      vertex -40.618 27.4979 -3.5
    endloop
  endfacet
  facet normal 0 0 1
    outer loop
      vertex -61.5 20 -3.5
      vertex -40 27.4 -3.5
      vertex -40.3129 27.4246 -3.5
    endloop
  endfacet
  facet normal 0 0 1
    outer loop
      vertex -61.5 20 -3.5
      vertex -39.6871 27.4246 -3.5
      vertex -40 27.4 -3.5
    endloop
  endfacet
  facet normal 0 0 1
    outer loop
      vertex -61.5 20 -3.5
      vertex -39.382 27.4979 -3.5
      vertex -39.6871 27.4246 -3.5
    endloop
  endfacet
  facet normal 0 0 1
    outer loop
      vertex -38.5858 27.9858 -3.5
      vertex -31.4142 27.9858 -3.5
      vertex -38.4882 28.1 -3.5
    endloop
  endfacet
  facet normal 0 0 1
    outer loop
      vertex -38.8244 27.782 -3.5
      vertex -31.4142 27.9858 -3.5
      vertex -38.5858 27.9858 -3.5
    endloop
  endfacet
  facet normal 0 0 1
    outer loop
      vertex -39.092 27.618 -3.5
      vertex -31.4142 27.9858 -3.5
      vertex -38.8244 27.782 -3.5
    endloop
  endfacet
  facet normal 0 0 1
    outer loop
      vertex -39.382 27.4979 -3.5
      vertex -31.4142 27.9858 -3.5
      vertex -39.092 27.618 -3.5
    endloop
  endfacet
  facet normal 0 0 1
    outer loop
      vertex -61.5 20 -3.5
      vertex -31.4142 27.9858 -3.5
      vertex -39.382 27.4979 -3.5
    endloop
  endfacet
  facet normal 0 0 1
    outer loop
      vertex -61.5 20 -3.5
      vertex -31.1756 27.782 -3.5
      vertex -31.4142 27.9858 -3.5
    endloop
  endfacet
  facet normal 0 0 1
    outer loop
      vertex -61.5 20 -3.5
      vertex -30.908 27.618 -3.5
      vertex -31.1756 27.782 -3.5
    endloop
  endfacet
  facet normal 0 0 1
    outer loop
      vertex -61.5 20 -3.5
      vertex -30.618 27.4979 -3.5
      vertex -30.908 27.618 -3.5
    endloop
  endfacet
  facet normal 0 0 1
    outer loop
      vertex -61.5 20 -3.5
      vertex -30.3129 27.4246 -3.5
      vertex -30.618 27.4979 -3.5
    endloop
  endfacet
  facet normal 0 0 1
    outer loop
      vertex -61.5 20 -3.5
      vertex -30 27.4 -3.5
      vertex -30.3129 27.4246 -3.5
    endloop
  endfacet
  facet normal 0 0 1
    outer loop
      vertex -61.5 20 -3.5
      vertex -29.6871 27.4246 -3.5
      vertex -30 27.4 -3.5
    endloop
  endfacet
  facet normal 0 0 1
    outer loop
      vertex -28.5858 27.9858 -3.5
      vertex -25 28.1 -3.5
      vertex -28.4882 28.1 -3.5
    endloop
  endfacet
  facet normal 0 0 1
    outer loop
      vertex -28.8244 27.782 -3.5
      vertex -25 28.1 -3.5
      vertex -28.5858 27.9858 -3.5
    endloop
  endfacet
  facet normal 0 0 1
    outer loop
      vertex -29.092 27.618 -3.5
      vertex -25 28.1 -3.5
      vertex -28.8244 27.782 -3.5
    endloop
  endfacet
  facet normal 0 0 1
    outer loop
      vertex -29.382 27.4979 -3.5
      vertex -25 28.1 -3.5
      vertex -29.092 27.618 -3.5
    endloop
  endfacet
  facet normal 0 0 1
    outer loop
      vertex -29.6871 27.4246 -3.5
      vertex -25 28.1 -3.5
      vertex -29.382 27.4979 -3.5
    endloop
  endfacet
  facet normal 0 0 1
    outer loop
      vertex -61.5 20 -3.5
      vertex -25 28.1 -3.5
      vertex -29.6871 27.4246 -3.5
    endloop
  endfacet
  facet normal 0 0 1
    outer loop
      vertex -25 28.1 -3.5
      vertex 25 28.1 -3.5
      vertex -25 30 -3.5
    endloop
  endfacet
  facet normal 0 0 1
    outer loop
      vertex -61.5 20 -3.5
      vertex 25 28.1 -3.5
      vertex -25 28.1 -3.5
    endloop
  endfacet
  facet normal 0 0 1
    outer loop
      vertex -61.5 20 -3.5
      vertex 29.092 27.618 -3.5
      vertex 25 28.1 -3.5
    endloop
  endfacet
  facet normal 0 0 1
    outer loop
      vertex -61.5 20 -3.5
      vertex 29.382 27.4979 -3.5
      vertex 29.092 27.618 -3.5
    endloop
  endfacet
  facet normal 0 0 1
    outer loop
      vertex -61.5 20 -3.5
      vertex 29.6871 27.4246 -3.5
      vertex 29.382 27.4979 -3.5
    endloop
  endfacet
  facet normal 0 0 1
    outer loop
      vertex -61.5 20 -3.5
      vertex 30 27.4 -3.5
      vertex 29.6871 27.4246 -3.5
    endloop
  endfacet
  facet normal 0 0 1
    outer loop
      vertex -61.5 20 -3.5
      vertex 30.3129 27.4246 -3.5
      vertex 30 27.4 -3.5
    endloop
  endfacet
  facet normal 0 0 1
    outer loop
      vertex 31.4142 27.9858 -3.5
      vertex 39.382 27.4979 -3.5
      vertex 31.5118 28.1 -3.5
    endloop
  endfacet
  facet normal 0 0 1
    outer loop
      vertex 31.1756 27.782 -3.5
      vertex 39.382 27.4979 -3.5
      vertex 31.4142 27.9858 -3.5
    endloop
  endfacet
  facet normal 0 0 1
    outer loop
      vertex 30.908 27.618 -3.5
      vertex 39.382 27.4979 -3.5
      vertex 31.1756 27.782 -3.5
    endloop
  endfacet
  facet normal 0 0 1
    outer loop
      vertex 30.618 27.4979 -3.5
      vertex 39.382 27.4979 -3.5
      vertex 30.908 27.618 -3.5
    endloop
  endfacet
  facet normal 0 0 1
    outer loop
      vertex 30.3129 27.4246 -3.5
      vertex 39.382 27.4979 -3.5
      vertex 30.618 27.4979 -3.5
    endloop
  endfacet
  facet normal 0 0 1
    outer loop
      vertex -61.5 20 -3.5
      vertex 39.382 27.4979 -3.5
      vertex 30.3129 27.4246 -3.5
    endloop
  endfacet
  facet normal 0 0 1
    outer loop
      vertex -61.5 20 -3.5
      vertex 39.6871 27.4246 -3.5
      vertex 39.382 27.4979 -3.5
    endloop
  endfacet
  facet normal 0 0 1
    outer loop
      vertex -61.5 20 -3.5
      vertex 40 27.4 -3.5
      vertex 39.6871 27.4246 -3.5
    endloop
  endfacet
  facet normal 0 0 1
    outer loop
      vertex 41.4142 27.9858 -3.5
      vertex 45 28.1 -3.5
      vertex 41.5118 28.1 -3.5
    endloop
  endfacet
  facet normal 0 0 1
    outer loop
      vertex 41.1756 27.782 -3.5
      vertex 45 28.1 -3.5
      vertex 41.4142 27.9858 -3.5
    endloop
  endfacet
  facet normal 0 0 1
    outer loop
      vertex 40.908 27.618 -3.5
      vertex 45 28.1 -3.5
      vertex 41.1756 27.782 -3.5
    endloop
  endfacet
  facet normal 0 0 1
    outer loop
      vertex 40.618 27.4979 -3.5
      vertex 45 28.1 -3.5
      vertex 40.908 27.618 -3.5
    endloop
  endfacet
  facet normal 0 0 1
    outer loop
      vertex 40.3129 27.4246 -3.5
      vertex 45 28.1 -3.5
      vertex 40.618 27.4979 -3.5
    endloop
  endfacet
  facet normal 0 0 1
    outer loop
      vertex 40.3129 27.4246 -3.5
      vertex 61.5 20 -3.5
      vertex 45 28.1 -3.5
    endloop
  endfacet
  facet normal 0 0 1
    outer loop
      vertex 40 27.4 -3.5
      vertex 61.5 20 -3.5
      vertex 40.3129 27.4246 -3.5
    endloop
  endfacet
  facet normal 0 0 1
    outer loop
      vertex -61.5 20 -3.5
      vertex 61.5 20 -3.5
      vertex 40 27.4 -3.5
    endloop
  endfacet
  facet normal -1 0 0
    outer loop
      vertex -45 -30 -3.5
      vertex -45 -30 3.5
      vertex -45 -20 -3.5
    endloop
  endfacet
  facet normal -1 0 0
    outer loop
      vertex -45 -20 -3.5
      vertex -45 -30 3.5
      vertex -45 -20 3.5
    endloop
  endfacet
  facet normal 0 0 1
    outer loop
      vertex -42.6 -28.1 3.5
      vertex -45 -30 3.5
      vertex -25 -30 3.5
    endloop
  endfacet
  facet normal 0 0 1
    outer loop
      vertex -42.6 -28.1 3.5
      vertex -42.6 -20 3.5
      vertex -45 -20 3.5
    endloop
  endfacet
  facet normal 0 0 1
    outer loop
      vertex -45 -20 3.5
      vertex -45 -30 3.5
      vertex -42.6 -28.1 3.5
    endloop
  endfacet
  facet normal 0 0 1
    outer loop
      vertex -25 -28.1 3.5
      vertex -42.6 -28.1 3.5
      vertex -25 -30 3.5
    endloop
  endfacet
  facet normal 1 0 0
    outer loop
      vertex -25 -28.1 -3.5
      vertex -25 -28.1 3.5
      vertex -25 -30 3.5
    endloop
  endfacet
  facet normal 1 0 0
    outer loop
      vertex -25 -30 -3.5
      vertex -25 -28.1 -3.5
      vertex -25 -30 3.5
    endloop
  endfacet
  facet normal 0 0 1
    outer loop
      vertex -25 -28.1 -3.5
      vertex -25 -30 -3.5
      vertex 25 -30 -3.5
    endloop
  endfacet
  facet normal 0 0 1
    outer loop
      vertex 42.6 -20 -3.5
      vertex -25 -28.1 -3.5
      vertex 25 -28.1 -3.5
    endloop
  endfacet
  facet normal 0 0 1
    outer loop
      vertex 25 -28.1 -3.5
      vertex -25 -28.1 -3.5
      vertex 25 -30 -3.5
    endloop
  endfacet
  facet normal 0 0 1
    outer loop
      vertex 42.6 -20 -3.5
      vertex 25 -28.1 -3.5
      vertex 42.6 -28.1 -3.5
    endloop
  endfacet
  facet normal 0 0 1
    outer loop
      vertex -42.6 -20 -3.5
      vertex -25 -28.1 -3.5
      vertex 42.6 -20 -3.5
    endloop
  endfacet
  facet normal 0 0 1
    outer loop
      vertex -42.6 -28.1 -3.5
      vertex -25 -28.1 -3.5
      vertex -42.6 -20 -3.5
    endloop
  endfacet
  facet normal -1 0 0
    outer loop
      vertex 25 -28.1 3.5
      vertex 25 -28.1 -3.5
      vertex 25 -30 3.5
    endloop
  endfacet
  facet normal -1 0 0
    outer loop
      vertex 25 -30 3.5
      vertex 25 -28.1 -3.5
      vertex 25 -30 -3.5
    endloop
  endfacet
  facet normal 0 0 1
    outer loop
      vertex 25 -28.1 3.5
      vertex 25 -30 3.5
      vertex 45 -30 3.5
    endloop
  endfacet
  facet normal 0 0 1
    outer loop
      vertex 42.6 -28.1 3.5
      vertex 25 -28.1 3.5
      vertex 45 -30 3.5
    endloop
  endfacet
  facet normal 0 0 1
    outer loop
      vertex 45 -20 3.5
      vertex 42.6 -28.1 3.5
      vertex 45 -30 3.5
    endloop
  endfacet
  facet normal 0 0 1
    outer loop
      vertex 42.6 -20 3.5
      vertex 42.6 -28.1 3.5
      vertex 45 -20 3.5
    endloop
  endfacet
  facet normal 1 0 0
    outer loop
      vertex 45 -30 3.5
      vertex 45 -30 -3.5
      vertex 45 -20 -3.5
    endloop
  endfacet
  facet normal 1 0 0
    outer loop
      vertex 45 -20 3.5
      vertex 45 -30 3.5
      vertex 45 -20 -3.5
    endloop
  endfacet
  facet normal -1 0 0
    outer loop
      vertex 42.6 -20 3.5
      vertex 42.6 -20 -3.5
      vertex 42.6 -28.1 3.5
    endloop
  endfacet
  facet normal -1 0 0
    outer loop
      vertex 42.6 -28.1 3.5
      vertex 42.6 -20 -3.5
      vertex 42.6 -28.1 -3.5
    endloop
  endfacet
  facet normal 1 0 0
    outer loop
      vertex -42.6 -20 -3.5
      vertex -42.6 -20 3.5
      vertex -42.6 -28.1 3.5
    endloop
  endfacet
  facet normal 1 0 0
    outer loop
      vertex -42.6 -28.1 -3.5
      vertex -42.6 -20 -3.5
      vertex -42.6 -28.1 3.5
    endloop
  endfacet
  facet normal 1 0 0
    outer loop
      vertex 45 28.1 3.5
      vertex 45 28.1 -3.5
      vertex 45 30 -3.5
    endloop
  endfacet
  facet normal 1 0 0
    outer loop
      vertex 45 30 3.5
      vertex 45 28.1 3.5
      vertex 45 30 -3.5
    endloop
  endfacet
  facet normal 0 0 1
    outer loop
      vertex 28.5858 27.9858 3.5
      vertex 28.8244 27.782 3.5
      vertex 28.4882 28.1 3.5
    endloop
  endfacet
  facet normal 0 0 1
    outer loop
      vertex 25 30 3.5
      vertex 25 28.1 3.5
      vertex 28.4882 28.1 3.5
    endloop
  endfacet
  facet normal 0 0 1
    outer loop
      vertex 31.5118 28.1 3.5
      vertex 38.4882 28.1 3.5
      vertex 25 30 3.5
    endloop
  endfacet
  facet normal 0 0 1
    outer loop
      vertex 30 27.4 3.5
      vertex 25 30 3.5
      vertex 28.4882 28.1 3.5
    endloop
  endfacet
  facet normal 0 0 1
    outer loop
      vertex 28.8244 27.782 3.5
      vertex 29.092 27.618 3.5
      vertex 28.4882 28.1 3.5
    endloop
  endfacet
  facet normal 0 0 1
    outer loop
      vertex 29.092 27.618 3.5
      vertex 29.382 27.4979 3.5
      vertex 28.4882 28.1 3.5
    endloop
  endfacet
  facet normal 0 0 1
    outer loop
      vertex 29.382 27.4979 3.5
      vertex 29.6871 27.4246 3.5
      vertex 28.4882 28.1 3.5
    endloop
  endfacet
  facet normal 0 0 1
    outer loop
      vertex 29.6871 27.4246 3.5
      vertex 30 27.4 3.5
      vertex 28.4882 28.1 3.5
    endloop
  endfacet
  facet normal 0 0 1
    outer loop
      vertex 30 27.4 3.5
      vertex 30.3129 27.4246 3.5
      vertex 25 30 3.5
    endloop
  endfacet
  facet normal 0 0 1
    outer loop
      vertex 41.5118 28.1 3.5
      vertex 45 28.1 3.5
      vertex 25 30 3.5
    endloop
  endfacet
  facet normal 0 0 1
    outer loop
      vertex 30.3129 27.4246 3.5
      vertex 30.618 27.4979 3.5
      vertex 25 30 3.5
    endloop
  endfacet
  facet normal 0 0 1
    outer loop
      vertex 38.5858 27.9858 3.5
      vertex 38.8244 27.782 3.5
      vertex 38.4882 28.1 3.5
    endloop
  endfacet
  facet normal 0 0 1
    outer loop
      vertex 30.618 27.4979 3.5
      vertex 30.908 27.618 3.5
      vertex 25 30 3.5
    endloop
  endfacet
  facet normal 0 0 1
    outer loop
      vertex 30.908 27.618 3.5
      vertex 31.1756 27.782 3.5
      vertex 25 30 3.5
    endloop
  endfacet
  facet normal 0 0 1
    outer loop
      vertex 31.1756 27.782 3.5
      vertex 31.4142 27.9858 3.5
      vertex 25 30 3.5
    endloop
  endfacet
  facet normal 0 0 1
    outer loop
      vertex 31.4142 27.9858 3.5
      vertex 31.5118 28.1 3.5
      vertex 25 30 3.5
    endloop
  endfacet
  facet normal 0 0 1
    outer loop
      vertex 38.4882 28.1 3.5
      vertex 41.1756 27.782 3.5
      vertex 25 30 3.5
    endloop
  endfacet
  facet normal 0 0 1
    outer loop
      vertex 38.8244 27.782 3.5
      vertex 39.092 27.618 3.5
      vertex 38.4882 28.1 3.5
    endloop
  endfacet
  facet normal 0 0 1
    outer loop
      vertex 39.092 27.618 3.5
      vertex 39.382 27.4979 3.5
      vertex 38.4882 28.1 3.5
    endloop
  endfacet
  facet normal 0 0 1
    outer loop
      vertex 39.382 27.4979 3.5
      vertex 39.6871 27.4246 3.5
      vertex 38.4882 28.1 3.5
    endloop
  endfacet
  facet normal 0 0 1
    outer loop
      vertex 39.6871 27.4246 3.5
      vertex 40 27.4 3.5
      vertex 38.4882 28.1 3.5
    endloop
  endfacet
  facet normal 0 0 1
    outer loop
      vertex 40 27.4 3.5
      vertex 40.3129 27.4246 3.5
      vertex 38.4882 28.1 3.5
    endloop
  endfacet
  facet normal 0 0 1
    outer loop
      vertex 40.3129 27.4246 3.5
      vertex 40.618 27.4979 3.5
      vertex 38.4882 28.1 3.5
    endloop
  endfacet
  facet normal 0 0 1
    outer loop
      vertex 40.618 27.4979 3.5
      vertex 40.908 27.618 3.5
      vertex 38.4882 28.1 3.5
    endloop
  endfacet
  facet normal 0 0 1
    outer loop
      vertex 40.908 27.618 3.5
      vertex 41.1756 27.782 3.5
      vertex 38.4882 28.1 3.5
    endloop
  endfacet
  facet normal 0 0 1
    outer loop
      vertex 41.1756 27.782 3.5
      vertex 41.4142 27.9858 3.5
      vertex 25 30 3.5
    endloop
  endfacet
  facet normal 0 0 1
    outer loop
      vertex 41.4142 27.9858 3.5
      vertex 41.5118 28.1 3.5
      vertex 25 30 3.5
    endloop
  endfacet
  facet normal 0 0 1
    outer loop
      vertex 45 28.1 3.5
      vertex 45 30 3.5
      vertex 25 30 3.5
    endloop
  endfacet
  facet normal -1 0 0
    outer loop
      vertex 25 30 3.5
      vertex 25 30 -3.5
      vertex 25 28.1 3.5
    endloop
  endfacet
  facet normal -1 0 0
    outer loop
      vertex 25 28.1 3.5
      vertex 25 30 -3.5
      vertex 25 28.1 -3.5
    endloop
  endfacet
  facet normal 1 0 0
    outer loop
      vertex -25 30 -3.5
      vertex -25 30 3.5
      vertex -25 28.1 3.5
    endloop
  endfacet
  facet normal 1 0 0
    outer loop
      vertex -25 28.1 -3.5
      vertex -25 30 -3.5
      vertex -25 28.1 3.5
    endloop
  endfacet
  facet normal 0 0 1
    outer loop
      vertex -41.4142 27.9858 3.5
      vertex -41.1756 27.782 3.5
      vertex -41.5118 28.1 3.5
    endloop
  endfacet
  facet normal 0 0 1
    outer loop
      vertex -45 30 3.5
      vertex -45 28.1 3.5
      vertex -41.5118 28.1 3.5
    endloop
  endfacet
  facet normal 0 0 1
    outer loop
      vertex -38.4882 28.1 3.5
      vertex -31.5118 28.1 3.5
      vertex -45 30 3.5
    endloop
  endfacet
  facet normal 0 0 1
    outer loop
      vertex -40 27.4 3.5
      vertex -45 30 3.5
      vertex -41.5118 28.1 3.5
    endloop
  endfacet
  facet normal 0 0 1
    outer loop
      vertex -41.1756 27.782 3.5
      vertex -40.908 27.618 3.5
      vertex -41.5118 28.1 3.5
    endloop
  endfacet
  facet normal 0 0 1
    outer loop
      vertex -40.908 27.618 3.5
      vertex -40.618 27.4979 3.5
      vertex -41.5118 28.1 3.5
    endloop
  endfacet
  facet normal 0 0 1
    outer loop
      vertex -40.618 27.4979 3.5
      vertex -40.3129 27.4246 3.5
      vertex -41.5118 28.1 3.5
    endloop
  endfacet
  facet normal 0 0 1
    outer loop
      vertex -40.3129 27.4246 3.5
      vertex -40 27.4 3.5
      vertex -41.5118 28.1 3.5
    endloop
  endfacet
  facet normal 0 0 1
    outer loop
      vertex -40 27.4 3.5
      vertex -39.6871 27.4246 3.5
      vertex -45 30 3.5
    endloop
  endfacet
  facet normal 0 0 1
    outer loop
      vertex -28.4882 28.1 3.5
      vertex -25 28.1 3.5
      vertex -45 30 3.5
    endloop
  endfacet
  facet normal 0 0 1
    outer loop
      vertex -39.6871 27.4246 3.5
      vertex -39.382 27.4979 3.5
      vertex -45 30 3.5
    endloop
  endfacet
  facet normal 0 0 1
    outer loop
      vertex -31.4142 27.9858 3.5
      vertex -31.1756 27.782 3.5
      vertex -31.5118 28.1 3.5
    endloop
  endfacet
  facet normal 0 0 1
    outer loop
      vertex -39.382 27.4979 3.5
      vertex -39.092 27.618 3.5
      vertex -45 30 3.5
    endloop
  endfacet
  facet normal 0 0 1
    outer loop
      vertex -39.092 27.618 3.5
      vertex -38.8244 27.782 3.5
      vertex -45 30 3.5
    endloop
  endfacet
  facet normal 0 0 1
    outer loop
      vertex -38.8244 27.782 3.5
      vertex -38.5858 27.9858 3.5
      vertex -45 30 3.5
    endloop
  endfacet
  facet normal 0 0 1
    outer loop
      vertex -38.5858 27.9858 3.5
      vertex -38.4882 28.1 3.5
      vertex -45 30 3.5
    endloop
  endfacet
  facet normal 0 0 1
    outer loop
      vertex -31.5118 28.1 3.5
      vertex -28.8244 27.782 3.5
      vertex -45 30 3.5
    endloop
  endfacet
  facet normal 0 0 1
    outer loop
      vertex -31.1756 27.782 3.5
      vertex -30.908 27.618 3.5
      vertex -31.5118 28.1 3.5
    endloop
  endfacet
  facet normal 0 0 1
    outer loop
      vertex -30.908 27.618 3.5
      vertex -30.618 27.4979 3.5
      vertex -31.5118 28.1 3.5
    endloop
  endfacet
  facet normal 0 0 1
    outer loop
      vertex -30.618 27.4979 3.5
      vertex -30.3129 27.4246 3.5
      vertex -31.5118 28.1 3.5
    endloop
  endfacet
  facet normal 0 0 1
    outer loop
      vertex -30.3129 27.4246 3.5
      vertex -30 27.4 3.5
      vertex -31.5118 28.1 3.5
    endloop
  endfacet
  facet normal 0 0 1
    outer loop
      vertex -30 27.4 3.5
      vertex -29.6871 27.4246 3.5
      vertex -31.5118 28.1 3.5
    endloop
  endfacet
  facet normal 0 0 1
    outer loop
      vertex -29.6871 27.4246 3.5
      vertex -29.382 27.4979 3.5
      vertex -31.5118 28.1 3.5
    endloop
  endfacet
  facet normal 0 0 1
    outer loop
      vertex -29.382 27.4979 3.5
      vertex -29.092 27.618 3.5
      vertex -31.5118 28.1 3.5
    endloop
  endfacet
  facet normal 0 0 1
    outer loop
      vertex -29.092 27.618 3.5
      vertex -28.8244 27.782 3.5
      vertex -31.5118 28.1 3.5
    endloop
  endfacet
  facet normal 0 0 1
    outer loop
      vertex -28.8244 27.782 3.5
      vertex -28.5858 27.9858 3.5
      vertex -45 30 3.5
    endloop
  endfacet
  facet normal 0 0 1
    outer loop
      vertex -28.5858 27.9858 3.5
      vertex -28.4882 28.1 3.5
      vertex -45 30 3.5
    endloop
  endfacet
  facet normal 0 0 1
    outer loop
      vertex -25 28.1 3.5
      vertex -25 30 3.5
      vertex -45 30 3.5
    endloop
  endfacet
  facet normal -1 0 0
    outer loop
      vertex -45 28.1 -3.5
      vertex -45 28.1 3.5
      vertex -45 30 -3.5
    endloop
  endfacet
  facet normal -1 0 0
    outer loop
      vertex -45 30 -3.5
      vertex -45 28.1 3.5
      vertex -45 30 3.5
    endloop
  endfacet
  facet normal 0 -1 0
    outer loop
      vertex -41.5118 28.1 -3.5
      vertex -41.5118 28.1 3.5
      vertex -45 28.1 3.5
    endloop
  endfacet
  facet normal 0 -1 0
    outer loop
      vertex -45 28.1 -3.5
      vertex -41.5118 28.1 -3.5
      vertex -45 28.1 3.5
    endloop
  endfacet
  facet normal -0.760407 -0.649447 0
    outer loop
      vertex -41.5118 28.1 -3.5
      vertex -41.4142 27.9858 -3.5
      vertex -41.5118 28.1 3.5
    endloop
  endfacet
  facet normal -0.760407 -0.649447 0
    outer loop
      vertex -41.5118 28.1 3.5
      vertex -41.4142 27.9858 -3.5
      vertex -41.4142 27.9858 3.5
    endloop
  endfacet
  facet normal -0.649447 -0.760407 0
    outer loop
      vertex -41.4142 27.9858 3.5
      vertex -41.4142 27.9858 -3.5
      vertex -41.1756 27.782 -3.5
    endloop
  endfacet
  facet normal -0.649447 -0.760407 0
    outer loop
      vertex -41.1756 27.782 3.5
      vertex -41.4142 27.9858 3.5
      vertex -41.1756 27.782 -3.5
    endloop
  endfacet
  facet normal -0.522498 -0.852641 0
    outer loop
      vertex -41.1756 27.782 3.5
      vertex -41.1756 27.782 -3.5
      vertex -40.908 27.618 -3.5
    endloop
  endfacet
  facet normal -0.522498 -0.852641 0
    outer loop
      vertex -40.908 27.618 3.5
      vertex -41.1756 27.782 3.5
      vertex -40.908 27.618 -3.5
    endloop
  endfacet
  facet normal -0.382683 -0.92388 0
    outer loop
      vertex -40.908 27.618 3.5
      vertex -40.908 27.618 -3.5
      vertex -40.618 27.4979 -3.5
    endloop
  endfacet
  facet normal -0.382683 -0.92388 0
    outer loop
      vertex -40.618 27.4979 3.5
      vertex -40.908 27.618 3.5
      vertex -40.618 27.4979 -3.5
    endloop
  endfacet
  facet normal -0.233446 -0.97237 0
    outer loop
      vertex -40.618 27.4979 3.5
      vertex -40.618 27.4979 -3.5
      vertex -40.3129 27.4246 -3.5
    endloop
  endfacet
  facet normal -0.233446 -0.97237 0
    outer loop
      vertex -40.3129 27.4246 3.5
      vertex -40.618 27.4979 3.5
      vertex -40.3129 27.4246 -3.5
    endloop
  endfacet
  facet normal -0.0784581 -0.996917 0
    outer loop
      vertex -40.3129 27.4246 3.5
      vertex -40.3129 27.4246 -3.5
      vertex -40 27.4 -3.5
    endloop
  endfacet
  facet normal -0.0784581 -0.996917 0
    outer loop
      vertex -40 27.4 3.5
      vertex -40.3129 27.4246 3.5
      vertex -40 27.4 -3.5
    endloop
  endfacet
  facet normal 0.0784581 -0.996917 0
    outer loop
      vertex -40 27.4 3.5
      vertex -40 27.4 -3.5
      vertex -39.6871 27.4246 -3.5
    endloop
  endfacet
  facet normal 0.0784581 -0.996917 0
    outer loop
      vertex -39.6871 27.4246 3.5
      vertex -40 27.4 3.5
      vertex -39.6871 27.4246 -3.5
    endloop
  endfacet
  facet normal 0.233446 -0.97237 0
    outer loop
      vertex -39.6871 27.4246 3.5
      vertex -39.6871 27.4246 -3.5
      vertex -39.382 27.4979 -3.5
    endloop
  endfacet
  facet normal 0.233446 -0.97237 0
    outer loop
      vertex -39.382 27.4979 3.5
      vertex -39.6871 27.4246 3.5
      vertex -39.382 27.4979 -3.5
    endloop
  endfacet
  facet normal 0.382683 -0.92388 0
    outer loop
      vertex -39.382 27.4979 3.5
      vertex -39.382 27.4979 -3.5
      vertex -39.092 27.618 -3.5
    endloop
  endfacet
  facet normal 0.382683 -0.92388 0
    outer loop
      vertex -39.092 27.618 3.5
      vertex -39.382 27.4979 3.5
      vertex -39.092 27.618 -3.5
    endloop
  endfacet
  facet normal 0.522498 -0.852641 0
    outer loop
      vertex -39.092 27.618 3.5
      vertex -39.092 27.618 -3.5
      vertex -38.8244 27.782 -3.5
    endloop
  endfacet
  facet normal 0.522498 -0.852641 0
    outer loop
      vertex -38.8244 27.782 3.5
      vertex -39.092 27.618 3.5
      vertex -38.8244 27.782 -3.5
    endloop
  endfacet
  facet normal 0.649447 -0.760407 0
    outer loop
      vertex -38.8244 27.782 3.5
      vertex -38.8244 27.782 -3.5
      vertex -38.5858 27.9858 -3.5
    endloop
  endfacet
  facet normal 0.649447 -0.760407 0
    outer loop
      vertex -38.5858 27.9858 3.5
      vertex -38.8244 27.782 3.5
      vertex -38.5858 27.9858 -3.5
    endloop
  endfacet
  facet normal 0.760407 -0.649447 0
    outer loop
      vertex -38.5858 27.9858 3.5
      vertex -38.5858 27.9858 -3.5
      vertex -38.4882 28.1 -3.5
    endloop
  endfacet
  facet normal 0.760407 -0.649447 0
    outer loop
      vertex -38.4882 28.1 3.5
      vertex -38.5858 27.9858 3.5
      vertex -38.4882 28.1 -3.5
    endloop
  endfacet
  facet normal 0 -1 0
    outer loop
      vertex -31.5118 28.1 -3.5
      vertex -31.5118 28.1 3.5
      vertex -38.4882 28.1 3.5
    endloop
  endfacet
  facet normal 0 -1 0
    outer loop
      vertex -38.4882 28.1 -3.5
      vertex -31.5118 28.1 -3.5
      vertex -38.4882 28.1 3.5
    endloop
  endfacet
  facet normal -0.760407 -0.649447 0
    outer loop
      vertex -31.5118 28.1 -3.5
      vertex -31.4142 27.9858 -3.5
      vertex -31.5118 28.1 3.5
    endloop
  endfacet
  facet normal -0.760407 -0.649447 0
    outer loop
      vertex -31.5118 28.1 3.5
      vertex -31.4142 27.9858 -3.5
      vertex -31.4142 27.9858 3.5
    endloop
  endfacet
  facet normal -0.649447 -0.760407 0
    outer loop
      vertex -31.4142 27.9858 3.5
      vertex -31.4142 27.9858 -3.5
      vertex -31.1756 27.782 -3.5
    endloop
  endfacet
  facet normal -0.649447 -0.760407 0
    outer loop
      vertex -31.1756 27.782 3.5
      vertex -31.4142 27.9858 3.5
      vertex -31.1756 27.782 -3.5
    endloop
  endfacet
  facet normal -0.522498 -0.852641 0
    outer loop
      vertex -31.1756 27.782 3.5
      vertex -31.1756 27.782 -3.5
      vertex -30.908 27.618 -3.5
    endloop
  endfacet
  facet normal -0.522498 -0.852641 0
    outer loop
      vertex -30.908 27.618 3.5
      vertex -31.1756 27.782 3.5
      vertex -30.908 27.618 -3.5
    endloop
  endfacet
  facet normal -0.382683 -0.92388 0
    outer loop
      vertex -30.908 27.618 3.5
      vertex -30.908 27.618 -3.5
      vertex -30.618 27.4979 -3.5
    endloop
  endfacet
  facet normal -0.382683 -0.92388 0
    outer loop
      vertex -30.618 27.4979 3.5
      vertex -30.908 27.618 3.5
      vertex -30.618 27.4979 -3.5
    endloop
  endfacet
  facet normal -0.233446 -0.97237 0
    outer loop
      vertex -30.618 27.4979 3.5
      vertex -30.618 27.4979 -3.5
      vertex -30.3129 27.4246 -3.5
    endloop
  endfacet
  facet normal -0.233446 -0.97237 0
    outer loop
      vertex -30.3129 27.4246 3.5
      vertex -30.618 27.4979 3.5
      vertex -30.3129 27.4246 -3.5
    endloop
  endfacet
  facet normal -0.0784581 -0.996917 0
    outer loop
      vertex -30.3129 27.4246 3.5
      vertex -30.3129 27.4246 -3.5
      vertex -30 27.4 -3.5
    endloop
  endfacet
  facet normal -0.0784581 -0.996917 0
    outer loop
      vertex -30 27.4 3.5
      vertex -30.3129 27.4246 3.5
      vertex -30 27.4 -3.5
    endloop
  endfacet
  facet normal 0.0784581 -0.996917 0
    outer loop
      vertex -30 27.4 3.5
      vertex -30 27.4 -3.5
      vertex -29.6871 27.4246 -3.5
    endloop
  endfacet
  facet normal 0.0784581 -0.996917 0
    outer loop
      vertex -29.6871 27.4246 3.5
      vertex -30 27.4 3.5
      vertex -29.6871 27.4246 -3.5
    endloop
  endfacet
  facet normal 0.233446 -0.97237 0
    outer loop
      vertex -29.6871 27.4246 3.5
      vertex -29.6871 27.4246 -3.5
      vertex -29.382 27.4979 -3.5
    endloop
  endfacet
  facet normal 0.233446 -0.97237 0
    outer loop
      vertex -29.382 27.4979 3.5
      vertex -29.6871 27.4246 3.5
      vertex -29.382 27.4979 -3.5
    endloop
  endfacet
  facet normal 0.382683 -0.92388 0
    outer loop
      vertex -29.382 27.4979 3.5
      vertex -29.382 27.4979 -3.5
      vertex -29.092 27.618 -3.5
    endloop
  endfacet
  facet normal 0.382683 -0.92388 0
    outer loop
      vertex -29.092 27.618 3.5
      vertex -29.382 27.4979 3.5
      vertex -29.092 27.618 -3.5
    endloop
  endfacet
  facet normal 0.522498 -0.852641 0
    outer loop
      vertex -29.092 27.618 3.5
      vertex -29.092 27.618 -3.5
      vertex -28.8244 27.782 -3.5
    endloop
  endfacet
  facet normal 0.522498 -0.852641 0
    outer loop
      vertex -28.8244 27.782 3.5
      vertex -29.092 27.618 3.5
      vertex -28.8244 27.782 -3.5
    endloop
  endfacet
  facet normal 0.649447 -0.760407 0
    outer loop
      vertex -28.8244 27.782 3.5
      vertex -28.8244 27.782 -3.5
      vertex -28.5858 27.9858 -3.5
    endloop
  endfacet
  facet normal 0.649447 -0.760407 0
    outer loop
      vertex -28.5858 27.9858 3.5
      vertex -28.8244 27.782 3.5
      vertex -28.5858 27.9858 -3.5
    endloop
  endfacet
  facet normal 0.760407 -0.649447 0
    outer loop
      vertex -28.5858 27.9858 3.5
      vertex -28.5858 27.9858 -3.5
      vertex -28.4882 28.1 -3.5
    endloop
  endfacet
  facet normal 0.760407 -0.649447 0
    outer loop
      vertex -28.4882 28.1 3.5
      vertex -28.5858 27.9858 3.5
      vertex -28.4882 28.1 -3.5
    endloop
  endfacet
  facet normal 0 -1 0
    outer loop
      vertex -25 28.1 -3.5
      vertex -25 28.1 3.5
      vertex -28.4882 28.1 3.5
    endloop
  endfacet
  facet normal 0 -1 0
    outer loop
      vertex -28.4882 28.1 -3.5
      vertex -25 28.1 -3.5
      vertex -28.4882 28.1 3.5
    endloop
  endfacet
  facet normal 0 -1 0
    outer loop
      vertex 28.4882 28.1 -3.5
      vertex 28.4882 28.1 3.5
      vertex 25 28.1 3.5
    endloop
  endfacet
  facet normal 0 -1 0
    outer loop
      vertex 25 28.1 -3.5
      vertex 28.4882 28.1 -3.5
      vertex 25 28.1 3.5
    endloop
  endfacet
  facet normal -0.760407 -0.649447 0
    outer loop
      vertex 28.4882 28.1 -3.5
      vertex 28.5858 27.9858 -3.5
      vertex 28.4882 28.1 3.5
    endloop
  endfacet
  facet normal -0.760407 -0.649447 0
    outer loop
      vertex 28.4882 28.1 3.5
      vertex 28.5858 27.9858 -3.5
      vertex 28.5858 27.9858 3.5
    endloop
  endfacet
  facet normal -0.649447 -0.760407 0
    outer loop
      vertex 28.5858 27.9858 3.5
      vertex 28.5858 27.9858 -3.5
      vertex 28.8244 27.782 -3.5
    endloop
  endfacet
  facet normal -0.649447 -0.760407 0
    outer loop
      vertex 28.8244 27.782 3.5
      vertex 28.5858 27.9858 3.5
      vertex 28.8244 27.782 -3.5
    endloop
  endfacet
  facet normal -0.522498 -0.852641 0
    outer loop
      vertex 28.8244 27.782 3.5
      vertex 28.8244 27.782 -3.5
      vertex 29.092 27.618 -3.5
    endloop
  endfacet
  facet normal -0.522498 -0.852641 0
    outer loop
      vertex 29.092 27.618 3.5
      vertex 28.8244 27.782 3.5
      vertex 29.092 27.618 -3.5
    endloop
  endfacet
  facet normal -0.382683 -0.92388 0
    outer loop
      vertex 29.092 27.618 3.5
      vertex 29.092 27.618 -3.5
      vertex 29.382 27.4979 -3.5
    endloop
  endfacet
  facet normal -0.382683 -0.92388 0
    outer loop
      vertex 29.382 27.4979 3.5
      vertex 29.092 27.618 3.5
      vertex 29.382 27.4979 -3.5
    endloop
  endfacet
  facet normal -0.233446 -0.97237 0
    outer loop
      vertex 29.382 27.4979 3.5
      vertex 29.382 27.4979 -3.5
      vertex 29.6871 27.4246 -3.5
    endloop
  endfacet
  facet normal -0.233446 -0.97237 0
    outer loop
      vertex 29.6871 27.4246 3.5
      vertex 29.382 27.4979 3.5
      vertex 29.6871 27.4246 -3.5
    endloop
  endfacet
  facet normal -0.0784581 -0.996917 0
    outer loop
      vertex 29.6871 27.4246 3.5
      vertex 29.6871 27.4246 -3.5
      vertex 30 27.4 -3.5
    endloop
  endfacet
  facet normal -0.0784581 -0.996917 0
    outer loop
      vertex 30 27.4 3.5
      vertex 29.6871 27.4246 3.5
      vertex 30 27.4 -3.5
    endloop
  endfacet
  facet normal 0.0784581 -0.996917 0
    outer loop
      vertex 30 27.4 3.5
      vertex 30 27.4 -3.5
      vertex 30.3129 27.4246 -3.5
    endloop
  endfacet
  facet normal 0.0784581 -0.996917 0
    outer loop
      vertex 30.3129 27.4246 3.5
      vertex 30 27.4 3.5
      vertex 30.3129 27.4246 -3.5
    endloop
  endfacet
  facet normal 0.233446 -0.97237 0
    outer loop
      vertex 30.3129 27.4246 3.5
      vertex 30.3129 27.4246 -3.5
      vertex 30.618 27.4979 -3.5
    endloop
  endfacet
  facet normal 0.233446 -0.97237 0
    outer loop
      vertex 30.618 27.4979 3.5
      vertex 30.3129 27.4246 3.5
      vertex 30.618 27.4979 -3.5
    endloop
  endfacet
  facet normal 0.382683 -0.92388 0
    outer loop
      vertex 30.618 27.4979 3.5
      vertex 30.618 27.4979 -3.5
      vertex 30.908 27.618 -3.5
    endloop
  endfacet
  facet normal 0.382683 -0.92388 0
    outer loop
      vertex 30.908 27.618 3.5
      vertex 30.618 27.4979 3.5
      vertex 30.908 27.618 -3.5
    endloop
  endfacet
  facet normal 0.522498 -0.852641 0
    outer loop
      vertex 30.908 27.618 3.5
      vertex 30.908 27.618 -3.5
      vertex 31.1756 27.782 -3.5
    endloop
  endfacet
  facet normal 0.522498 -0.852641 0
    outer loop
      vertex 31.1756 27.782 3.5
      vertex 30.908 27.618 3.5
      vertex 31.1756 27.782 -3.5
    endloop
  endfacet
  facet normal 0.649447 -0.760407 0
    outer loop
      vertex 31.1756 27.782 3.5
      vertex 31.1756 27.782 -3.5
      vertex 31.4142 27.9858 -3.5
    endloop
  endfacet
  facet normal 0.649447 -0.760407 0
    outer loop
      vertex 31.4142 27.9858 3.5
      vertex 31.1756 27.782 3.5
      vertex 31.4142 27.9858 -3.5
    endloop
  endfacet
  facet normal 0.760407 -0.649447 0
    outer loop
      vertex 31.4142 27.9858 3.5
      vertex 31.4142 27.9858 -3.5
      vertex 31.5118 28.1 -3.5
    endloop
  endfacet
  facet normal 0.760407 -0.649447 0
    outer loop
      vertex 31.5118 28.1 3.5
      vertex 31.4142 27.9858 3.5
      vertex 31.5118 28.1 -3.5
    endloop
  endfacet
  facet normal 0 -1 0
    outer loop
      vertex 38.4882 28.1 -3.5
      vertex 38.4882 28.1 3.5
      vertex 31.5118 28.1 3.5
    endloop
  endfacet
  facet normal 0 -1 0
    outer loop
      vertex 31.5118 28.1 -3.5
      vertex 38.4882 28.1 -3.5
      vertex 31.5118 28.1 3.5
    endloop
  endfacet
  facet normal -0.760407 -0.649447 0
    outer loop
      vertex 38.4882 28.1 -3.5
      vertex 38.5858 27.9858 -3.5
      vertex 38.4882 28.1 3.5
    endloop
  endfacet
  facet normal -0.760407 -0.649447 0
    outer loop
      vertex 38.4882 28.1 3.5
      vertex 38.5858 27.9858 -3.5
      vertex 38.5858 27.9858 3.5
    endloop
  endfacet
  facet normal -0.649447 -0.760407 0
    outer loop
      vertex 38.5858 27.9858 3.5
      vertex 38.5858 27.9858 -3.5
      vertex 38.8244 27.782 -3.5
    endloop
  endfacet
  facet normal -0.649447 -0.760407 0
    outer loop
      vertex 38.8244 27.782 3.5
      vertex 38.5858 27.9858 3.5
      vertex 38.8244 27.782 -3.5
    endloop
  endfacet
  facet normal -0.522498 -0.852641 0
    outer loop
      vertex 38.8244 27.782 3.5
      vertex 38.8244 27.782 -3.5
      vertex 39.092 27.618 -3.5
    endloop
  endfacet
  facet normal -0.522498 -0.852641 0
    outer loop
      vertex 39.092 27.618 3.5
      vertex 38.8244 27.782 3.5
      vertex 39.092 27.618 -3.5
    endloop
  endfacet
  facet normal -0.382683 -0.92388 0
    outer loop
      vertex 39.092 27.618 3.5
      vertex 39.092 27.618 -3.5
      vertex 39.382 27.4979 -3.5
    endloop
  endfacet
  facet normal -0.382683 -0.92388 0
    outer loop
      vertex 39.382 27.4979 3.5
      vertex 39.092 27.618 3.5
      vertex 39.382 27.4979 -3.5
    endloop
  endfacet
  facet normal -0.233446 -0.97237 0
    outer loop
      vertex 39.382 27.4979 3.5
      vertex 39.382 27.4979 -3.5
      vertex 39.6871 27.4246 -3.5
    endloop
  endfacet
  facet normal -0.233446 -0.97237 0
    outer loop
      vertex 39.6871 27.4246 3.5
      vertex 39.382 27.4979 3.5
      vertex 39.6871 27.4246 -3.5
    endloop
  endfacet
  facet normal -0.0784581 -0.996917 0
    outer loop
      vertex 39.6871 27.4246 3.5
      vertex 39.6871 27.4246 -3.5
      vertex 40 27.4 -3.5
    endloop
  endfacet
  facet normal -0.0784581 -0.996917 0
    outer loop
      vertex 40 27.4 3.5
      vertex 39.6871 27.4246 3.5
      vertex 40 27.4 -3.5
    endloop
  endfacet
  facet normal 0.0784581 -0.996917 0
    outer loop
      vertex 40 27.4 3.5
      vertex 40 27.4 -3.5
      vertex 40.3129 27.4246 -3.5
    endloop
  endfacet
  facet normal 0.0784581 -0.996917 0
    outer loop
      vertex 40.3129 27.4246 3.5
      vertex 40 27.4 3.5
      vertex 40.3129 27.4246 -3.5
    endloop
  endfacet
  facet normal 0.233446 -0.97237 0
    outer loop
      vertex 40.3129 27.4246 3.5
      vertex 40.3129 27.4246 -3.5
      vertex 40.618 27.4979 -3.5
    endloop
  endfacet
  facet normal 0.233446 -0.97237 0
    outer loop
      vertex 40.618 27.4979 3.5
      vertex 40.3129 27.4246 3.5
      vertex 40.618 27.4979 -3.5
    endloop
  endfacet
  facet normal 0.382683 -0.92388 0
    outer loop
      vertex 40.618 27.4979 3.5
      vertex 40.618 27.4979 -3.5
      vertex 40.908 27.618 -3.5
    endloop
  endfacet
  facet normal 0.382683 -0.92388 0
    outer loop
      vertex 40.908 27.618 3.5
      vertex 40.618 27.4979 3.5
      vertex 40.908 27.618 -3.5
    endloop
  endfacet
  facet normal 0.522498 -0.852641 0
    outer loop
      vertex 40.908 27.618 3.5
      vertex 40.908 27.618 -3.5
      vertex 41.1756 27.782 -3.5
    endloop
  endfacet
  facet normal 0.522498 -0.852641 0
    outer loop
      vertex 41.1756 27.782 3.5
      vertex 40.908 27.618 3.5
      vertex 41.1756 27.782 -3.5
    endloop
  endfacet
  facet normal 0.649447 -0.760407 0
    outer loop
      vertex 41.1756 27.782 3.5
      vertex 41.1756 27.782 -3.5
      vertex 41.4142 27.9858 -3.5
    endloop
  endfacet
  facet normal 0.649447 -0.760407 0
    outer loop
      vertex 41.4142 27.9858 3.5
      vertex 41.1756 27.782 3.5
      vertex 41.4142 27.9858 -3.5
    endloop
  endfacet
  facet normal 0.760407 -0.649447 0
    outer loop
      vertex 41.4142 27.9858 3.5
      vertex 41.4142 27.9858 -3.5
      vertex 41.5118 28.1 -3.5
    endloop
  endfacet
  facet normal 0.760407 -0.649447 0
    outer loop
      vertex 41.5118 28.1 3.5
      vertex 41.4142 27.9858 3.5
      vertex 41.5118 28.1 -3.5
    endloop
  endfacet
  facet normal 0 -1 0
    outer loop
      vertex 45 28.1 -3.5
      vertex 45 28.1 3.5
      vertex 41.5118 28.1 3.5
    endloop
  endfacet
  facet normal 0 -1 0
    outer loop
      vertex 41.5118 28.1 -3.5
      vertex 45 28.1 -3.5
      vertex 41.5118 28.1 3.5
    endloop
  endfacet
  facet normal 0 1 0
    outer loop
      vertex -25 -28.1 3.5
      vertex -25 -28.1 -3.5
      vertex -42.6 -28.1 3.5
    endloop
  endfacet
  facet normal 0 1 0
    outer loop
      vertex -42.6 -28.1 3.5
      vertex -25 -28.1 -3.5
      vertex -42.6 -28.1 -3.5
    endloop
  endfacet
  facet normal 0 1 0
    outer loop
      vertex 42.6 -28.1 3.5
      vertex 42.6 -28.1 -3.5
      vertex 25 -28.1 3.5
    endloop
  endfacet
  facet normal 0 1 0
    outer loop
      vertex 25 -28.1 3.5
      vertex 42.6 -28.1 -3.5
      vertex 25 -28.1 -3.5
    endloop
  endfacet
endsolid OpenSCAD_Model
