solid OpenSCAD_Model
  facet normal -1 0 0
    outer loop
      vertex -28.5 -36.5 -2
      vertex -28.5 -36.5 2
      vertex -28.5 36.5 -2
    endloop
  endfacet
  facet normal -1 0 0
    outer loop
      vertex -28.5 36.5 -2
      vertex -28.5 -36.5 2
      vertex -28.5 36.5 2
    endloop
  endfacet
  facet normal 0 -1 0
    outer loop
      vertex -28.5 -36.5 2
      vertex -28.5 -36.5 -2
      vertex 28.5 -36.5 -2
    endloop
  endfacet
  facet normal 0 -1 0
    outer loop
      vertex 28.5 -36.5 2
      vertex -28.5 -36.5 2
      vertex 28.5 -36.5 -2
    endloop
  endfacet
  facet normal 0 0 -1
    outer loop
      vertex -23.5 31.5 -2
      vertex -28.5 36.5 -2
      vertex 28.5 36.5 -2
    endloop
  endfacet
  facet normal 0 0 -1
    outer loop
      vertex 23.5 31.5 -2
      vertex -23.5 31.5 -2
      vertex 28.5 36.5 -2
    endloop
  endfacet
  facet normal 0 0 -1
    outer loop
      vertex -28.5 -36.5 -2
      vertex -28.5 36.5 -2
      vertex -23.5 -31.5 -2
    endloop
  endfacet
  facet normal 0 0 -1
    outer loop
      vertex -28.5 -36.5 -2
      vertex -23.5 -31.5 -2
      vertex 28.5 -36.5 -2
    endloop
  endfacet
  facet normal 0 0 -1
    outer loop
      vertex 23.5 31.5 -2
      vertex 28.5 -36.5 -2
      vertex 23.5 -31.5 -2
    endloop
  endfacet
  facet normal 0 0 -1
    outer loop
      vertex -23.5 -31.5 -2
      vertex 23.5 -31.5 -2
      vertex 28.5 -36.5 -2
    endloop
  endfacet
  facet normal 0 0 -1
    outer loop
      vertex 28.5 -36.5 -2
      vertex 23.5 31.5 -2
      vertex 28.5 36.5 -2
    endloop
  endfacet
  facet normal 0 0 -1
    outer loop
      vertex -23.5 -31.5 -2
      vertex -28.5 36.5 -2
      vertex -23.5 31.5 -2
    endloop
  endfacet
  facet normal 0 1 0
    outer loop
      vertex -28.5 36.5 -2
      vertex -28.5 36.5 2
      vertex 28.5 36.5 -2
    endloop
  endfacet
  facet normal 0 1 0
    outer loop
      vertex 28.5 36.5 -2
      vertex -28.5 36.5 2
      vertex 28.5 36.5 2
    endloop
  endfacet
  facet normal 0 0 1
    outer loop
      vertex 0 -35.5 2
      vertex -28.5 -36.5 2
      vertex 28.5 -36.5 2
    endloop
  endfacet
  facet normal 0 0 1
    outer loop
      vertex -10 -35.5 2
      vertex -10 -34.5 2
      vertex -28.5 -36.5 2
    endloop
  endfacet
  facet normal 0 0 1
    outer loop
      vertex -28.5 36.5 2
      vertex -28.5 -36.5 2
      vertex -27.5 -10 2
    endloop
  endfacet
  facet normal 0 0 1
    outer loop
      vertex -28.5 36.5 2
      vertex -27.5 -10 2
      vertex -27.5 10 2
    endloop
  endfacet
  facet normal 0 0 1
    outer loop
      vertex -28.5 36.5 2
      vertex -27.5 10 2
      vertex -26.5 10 2
    endloop
  endfacet
  facet normal 0 0 1
    outer loop
      vertex 28.5 36.5 2
      vertex -28.5 36.5 2
      vertex -26.5 34.5 2
    endloop
  endfacet
  facet normal 0 0 1
    outer loop
      vertex -1.5 35.3865 2
      vertex -26.5 34.5 2
      vertex -1.5 34.5 2
    endloop
  endfacet
  facet normal 0 0 1
    outer loop
      vertex 28.5 36.5 2
      vertex -26.5 34.5 2
      vertex -1.5 35.3865 2
    endloop
  endfacet
  facet normal 0 0 1
    outer loop
      vertex 28.5 36.5 2
      vertex -1.5 35.3865 2
      vertex 1.5 35.3865 2
    endloop
  endfacet
  facet normal 0 0 1
    outer loop
      vertex 27.5 10 2
      vertex 27.5 -10 2
      vertex 28.5 -36.5 2
    endloop
  endfacet
  facet normal 0 0 1
    outer loop
      vertex 28.5 36.5 2
      vertex 1.5 34.5 2
      vertex 26.5 34.5 2
    endloop
  endfacet
  facet normal 0 0 1
    outer loop
      vertex 26.5 34.5 2
      vertex 26.5 1.11022e-16 2
      vertex 26.5 10 2
    endloop
  endfacet
  facet normal 0 0 1
    outer loop
      vertex 28.5 36.5 2
      vertex 27.5 10 2
      vertex 28.5 -36.5 2
    endloop
  endfacet
  facet normal 0 0 1
    outer loop
      vertex 28.5 36.5 2
      vertex 26.5 34.5 2
      vertex 27.5 10 2
    endloop
  endfacet
  facet normal 0 0 1
    outer loop
      vertex 27.5 -10 2
      vertex 26.5 -10 2
      vertex 28.5 -36.5 2
    endloop
  endfacet
  facet normal 0 0 1
    outer loop
      vertex 1.5 35.3865 2
      vertex 1.5 34.5 2
      vertex 28.5 36.5 2
    endloop
  endfacet
  facet normal 0 0 1
    outer loop
      vertex 26.5 10 2
      vertex 27.5 10 2
      vertex 26.5 34.5 2
    endloop
  endfacet
  facet normal 0 0 1
    outer loop
      vertex 0 -34.5 2
      vertex 0 -35.5 2
      vertex 28.5 -36.5 2
    endloop
  endfacet
  facet normal 0 0 1
    outer loop
      vertex -10 -35.5 2
      vertex -28.5 -36.5 2
      vertex 0 -35.5 2
    endloop
  endfacet
  facet normal 0 0 1
    outer loop
      vertex -26.5 -34.5 2
      vertex -28.5 -36.5 2
      vertex -10 -34.5 2
    endloop
  endfacet
  facet normal 0 0 1
    outer loop
      vertex -27.5 -10 2
      vertex -28.5 -36.5 2
      vertex -26.5 -34.5 2
    endloop
  endfacet
  facet normal 0 0 1
    outer loop
      vertex -26.5 -34.5 2
      vertex -26.5 -1.11022e-16 2
      vertex -26.5 -10 2
    endloop
  endfacet
  facet normal 0 0 1
    outer loop
      vertex -26.5 -34.5 2
      vertex -26.5 -10 2
      vertex -27.5 -10 2
    endloop
  endfacet
  facet normal 0 0 1
    outer loop
      vertex -26.5 10 2
      vertex -26.5 34.5 2
      vertex -28.5 36.5 2
    endloop
  endfacet
  facet normal 0 0 1
    outer loop
      vertex 26.5 -10 2
      vertex 26.5 -34.5 2
      vertex 28.5 -36.5 2
    endloop
  endfacet
  facet normal 0 0 1
    outer loop
      vertex 26.5 -34.5 2
      vertex 0 -34.5 2
      vertex 28.5 -36.5 2
    endloop
  endfacet
  facet normal 1 0 0
    outer loop
      vertex 28.5 -36.5 2
      vertex 28.5 -36.5 -2
      vertex 28.5 36.5 -2
    endloop
  endfacet
  facet normal 1 0 0
    outer loop
      vertex 28.5 36.5 2
      vertex 28.5 -36.5 2
      vertex 28.5 36.5 -2
    endloop
  endfacet
  facet normal 1 0 0
    outer loop
      vertex -23.5 31.5 -2
      vertex -23.5 31.5 1
      vertex -23.5 -31.5 1
    endloop
  endfacet
  facet normal 1 0 0
    outer loop
      vertex -23.5 -31.5 -2
      vertex -23.5 31.5 -2
      vertex -23.5 -31.5 1
    endloop
  endfacet
  facet normal 0 -1 0
    outer loop
      vertex 23.5 31.5 -2
      vertex 23.5 31.5 1
      vertex -23.5 31.5 1
    endloop
  endfacet
  facet normal 0 -1 0
    outer loop
      vertex -23.5 31.5 -2
      vertex 23.5 31.5 -2
      vertex -23.5 31.5 1
    endloop
  endfacet
  facet normal -1 0 0
    outer loop
      vertex 23.5 31.5 1
      vertex 23.5 31.5 -2
      vertex 23.5 -31.5 1
    endloop
  endfacet
  facet normal -1 0 0
    outer loop
      vertex 23.5 -31.5 1
      vertex 23.5 31.5 -2
      vertex 23.5 -31.5 -2
    endloop
  endfacet
  facet normal 0 1 0
    outer loop
      vertex 23.5 -31.5 1
      vertex 23.5 -31.5 -2
      vertex -23.5 -31.5 1
    endloop
  endfacet
  facet normal 0 1 0
    outer loop
      vertex -23.5 -31.5 1
      vertex 23.5 -31.5 -2
      vertex -23.5 -31.5 -2
    endloop
  endfacet
  facet normal -2.22045e-16 -1 0
    outer loop
      vertex -27.5 -10 3.5
      vertex -27.5 -10 2
      vertex -26.5 -10 2
    endloop
  endfacet
  facet normal -2.22045e-16 -1 0
    outer loop
      vertex -26.5 -10 3.5
      vertex -27.5 -10 3.5
      vertex -26.5 -10 2
    endloop
  endfacet
  facet normal -1 2.22045e-16 0
    outer loop
      vertex -27.5 -10 2
      vertex -27.5 -10 3.5
      vertex -27.5 10 2
    endloop
  endfacet
  facet normal -1 2.22045e-16 0
    outer loop
      vertex -27.5 10 2
      vertex -27.5 -10 3.5
      vertex -27.5 10 3.5
    endloop
  endfacet
  facet normal 1 -2.22045e-16 0
    outer loop
      vertex -26.5 -10 3.5
      vertex -26.5 -10 2
      vertex -26.5 -1.11022e-16 2
    endloop
  endfacet
  facet normal 1 -2.22045e-16 0
    outer loop
      vertex -26.5 10 1
      vertex -26.5 -10 3.5
      vertex -26.5 -1.11022e-16 2
    endloop
  endfacet
  facet normal 1 -2.22045e-16 0
    outer loop
      vertex -26.5 -1.11022e-16 1
      vertex -26.5 10 1
      vertex -26.5 -1.11022e-16 2
    endloop
  endfacet
  facet normal 1 -2.22045e-16 0
    outer loop
      vertex -26.5 10 1
      vertex -26.5 10 3.5
      vertex -26.5 -10 3.5
    endloop
  endfacet
  facet normal 1 0 0
    outer loop
      vertex -26.5 -1.11022e-16 1
      vertex -26.5 -1.11022e-16 2
      vertex -26.5 -34.5 2
    endloop
  endfacet
  facet normal 1 0 0
    outer loop
      vertex -26.5 -34.5 1
      vertex -26.5 -1.11022e-16 1
      vertex -26.5 -34.5 2
    endloop
  endfacet
  facet normal 0 1 0
    outer loop
      vertex -10 -34.5 2
      vertex -10 -34.5 1
      vertex -26.5 -34.5 2
    endloop
  endfacet
  facet normal 0 1 0
    outer loop
      vertex -26.5 -34.5 2
      vertex -10 -34.5 1
      vertex -26.5 -34.5 1
    endloop
  endfacet
  facet normal 0 1 0
    outer loop
      vertex -10 -34.5 3.5
      vertex 0 -34.5 3.5
      vertex -10 -34.5 2
    endloop
  endfacet
  facet normal 0 1 0
    outer loop
      vertex -10 -34.5 2
      vertex 0 -34.5 3.5
      vertex 0 -34.5 2
    endloop
  endfacet
  facet normal 0 1 0
    outer loop
      vertex -10 -34.5 2
      vertex 0 -34.5 2
      vertex 0 -34.5 1
    endloop
  endfacet
  facet normal 0 1 0
    outer loop
      vertex -10 -34.5 2
      vertex 0 -34.5 1
      vertex -10 -34.5 1
    endloop
  endfacet
  facet normal -1 0 0
    outer loop
      vertex -10 -35.5 2
      vertex -10 -35.5 3.5
      vertex -10 -34.5 2
    endloop
  endfacet
  facet normal -1 0 0
    outer loop
      vertex -10 -34.5 2
      vertex -10 -35.5 3.5
      vertex -10 -34.5 3.5
    endloop
  endfacet
  facet normal 0 -1 0
    outer loop
      vertex -10 -35.5 3.5
      vertex -10 -35.5 2
      vertex 0 -35.5 2
    endloop
  endfacet
  facet normal 0 -1 0
    outer loop
      vertex 0 -35.5 3.5
      vertex -10 -35.5 3.5
      vertex 0 -35.5 2
    endloop
  endfacet
  facet normal 1 0 0
    outer loop
      vertex 0 -35.5 3.5
      vertex 0 -35.5 2
      vertex 0 -34.5 2
    endloop
  endfacet
  facet normal 1 0 0
    outer loop
      vertex 0 -34.5 3.5
      vertex 0 -35.5 3.5
      vertex 0 -34.5 2
    endloop
  endfacet
  facet normal 0 1 0
    outer loop
      vertex 26.5 -34.5 2
      vertex 26.5 -34.5 1
      vertex 0 -34.5 2
    endloop
  endfacet
  facet normal 0 1 0
    outer loop
      vertex 0 -34.5 2
      vertex 26.5 -34.5 1
      vertex 0 -34.5 1
    endloop
  endfacet
  facet normal -1 0 0
    outer loop
      vertex 26.5 -10 2
      vertex 26.5 -10 1
      vertex 26.5 -34.5 2
    endloop
  endfacet
  facet normal -1 0 0
    outer loop
      vertex 26.5 -34.5 2
      vertex 26.5 -10 1
      vertex 26.5 -34.5 1
    endloop
  endfacet
  facet normal -2.22045e-16 -1 0
    outer loop
      vertex 27.5 -10 2
      vertex 26.5 -10 3.5
      vertex 26.5 -10 2
    endloop
  endfacet
  facet normal -2.22045e-16 -1 0
    outer loop
      vertex 26.5 -10 2
      vertex 26.5 -10 3.5
      vertex 26.5 -10 1
    endloop
  endfacet
  facet normal -2.22045e-16 -1 0
    outer loop
      vertex 27.5 -10 3.5
      vertex 26.5 -10 3.5
      vertex 27.5 -10 2
    endloop
  endfacet
  facet normal 1 -2.22045e-16 0
    outer loop
      vertex 27.5 -10 3.5
      vertex 27.5 -10 2
      vertex 27.5 10 2
    endloop
  endfacet
  facet normal 1 -2.22045e-16 0
    outer loop
      vertex 27.5 10 3.5
      vertex 27.5 -10 3.5
      vertex 27.5 10 2
    endloop
  endfacet
  facet normal 2.22045e-16 1 0
    outer loop
      vertex 26.5 10 2
      vertex 26.5 10 3.5
      vertex 27.5 10 2
    endloop
  endfacet
  facet normal 2.22045e-16 1 0
    outer loop
      vertex 27.5 10 2
      vertex 26.5 10 3.5
      vertex 27.5 10 3.5
    endloop
  endfacet
  facet normal -1 2.22045e-16 0
    outer loop
      vertex 26.5 -10 1
      vertex 26.5 -10 3.5
      vertex 26.5 1.11022e-16 1
    endloop
  endfacet
  facet normal -1 2.22045e-16 0
    outer loop
      vertex 26.5 1.11022e-16 2
      vertex 26.5 -10 3.5
      vertex 26.5 10 3.5
    endloop
  endfacet
  facet normal -1 2.22045e-16 0
    outer loop
      vertex 26.5 1.11022e-16 1
      vertex 26.5 -10 3.5
      vertex 26.5 1.11022e-16 2
    endloop
  endfacet
  facet normal -1 2.22045e-16 0
    outer loop
      vertex 26.5 1.11022e-16 2
      vertex 26.5 10 3.5
      vertex 26.5 10 2
    endloop
  endfacet
  facet normal -1 0 0
    outer loop
      vertex 26.5 34.5 2
      vertex 26.5 34.5 1
      vertex 26.5 1.11022e-16 2
    endloop
  endfacet
  facet normal -1 0 0
    outer loop
      vertex 26.5 1.11022e-16 2
      vertex 26.5 34.5 1
      vertex 26.5 1.11022e-16 1
    endloop
  endfacet
  facet normal 0 -1 0
    outer loop
      vertex 26.5 34.5 1
      vertex 26.5 34.5 2
      vertex 1.5 34.5 2
    endloop
  endfacet
  facet normal 0 -1 0
    outer loop
      vertex -1.5 34.5 1.51184
      vertex 26.5 34.5 1
      vertex 1.5 34.5 1.51184
    endloop
  endfacet
  facet normal 0 -1 0
    outer loop
      vertex 1.5 34.5 1.51184
      vertex 26.5 34.5 1
      vertex 1.5 34.5 2
    endloop
  endfacet
  facet normal 0 -1 0
    outer loop
      vertex -26.5 34.5 1
      vertex 26.5 34.5 1
      vertex -1.5 34.5 1.51184
    endloop
  endfacet
  facet normal 0 -1 0
    outer loop
      vertex -26.5 34.5 2
      vertex -1.5 34.5 1.51184
      vertex -1.5 34.5 2
    endloop
  endfacet
  facet normal 0 -1 0
    outer loop
      vertex -26.5 34.5 1
      vertex -1.5 34.5 1.51184
      vertex -26.5 34.5 2
    endloop
  endfacet
  facet normal 1 0 0
    outer loop
      vertex 1.5 34.5 2
      vertex 1.5 34.0171 2.83853
      vertex 1.5 34.5 1.51184
    endloop
  endfacet
  facet normal 1 0 0
    outer loop
      vertex 1.5 34.9568 3.18055
      vertex 1.5 34.0171 2.83853
      vertex 1.5 34.5 2
    endloop
  endfacet
  facet normal 1 0 0
    outer loop
      vertex 1.5 34.5 2
      vertex 1.5 35.3865 2
      vertex 1.5 34.9568 3.18055
    endloop
  endfacet
  facet normal 0 0.939693 0.34202
    outer loop
      vertex -1.5 34.9568 3.18055
      vertex 1.5 34.9568 3.18055
      vertex -1.5 35.3865 2
    endloop
  endfacet
  facet normal 0 0.939693 0.34202
    outer loop
      vertex -1.5 35.3865 2
      vertex 1.5 34.9568 3.18055
      vertex 1.5 35.3865 2
    endloop
  endfacet
  facet normal -1 0 0
    outer loop
      vertex -1.5 34.0171 2.83853
      vertex -1.5 34.9568 3.18055
      vertex -1.5 34.5 2
    endloop
  endfacet
  facet normal -1 0 0
    outer loop
      vertex -1.5 34.0171 2.83853
      vertex -1.5 34.5 2
      vertex -1.5 34.5 1.51184
    endloop
  endfacet
  facet normal -1 0 0
    outer loop
      vertex -1.5 34.5 2
      vertex -1.5 34.9568 3.18055
      vertex -1.5 35.3865 2
    endloop
  endfacet
  facet normal 1 0 0
    outer loop
      vertex -26.5 34.5 1
      vertex -26.5 34.5 2
      vertex -26.5 10 2
    endloop
  endfacet
  facet normal 1 0 0
    outer loop
      vertex -26.5 10 1
      vertex -26.5 34.5 1
      vertex -26.5 10 2
    endloop
  endfacet
  facet normal 2.22045e-16 1 0
    outer loop
      vertex -27.5 10 2
      vertex -27.5 10 3.5
      vertex -26.5 10 2
    endloop
  endfacet
  facet normal 2.22045e-16 1 0
    outer loop
      vertex -26.5 10 2
      vertex -27.5 10 3.5
      vertex -26.5 10 3.5
    endloop
  endfacet
  facet normal 2.22045e-16 1 0
    outer loop
      vertex -26.5 10 2
      vertex -26.5 10 3.5
      vertex -26.5 10 1
    endloop
  endfacet
  facet normal 0 0 1
    outer loop
      vertex 23.5 -31.5 1
      vertex 26.5 -34.5 1
      vertex 26.5 -10 1
    endloop
  endfacet
  facet normal 0 0 1
    outer loop
      vertex 23.5 -31.5 1
      vertex -23.5 -31.5 1
      vertex -10 -34.5 1
    endloop
  endfacet
  facet normal 0 0 1
    outer loop
      vertex -23.5 -31.5 1
      vertex -26.5 10 1
      vertex -26.5 -1.11022e-16 1
    endloop
  endfacet
  facet normal 0 0 1
    outer loop
      vertex 23.5 31.5 1
      vertex 26.5 -10 1
      vertex 26.5 1.11022e-16 1
    endloop
  endfacet
  facet normal 0 0 1
    outer loop
      vertex -26.5 34.5 1
      vertex -23.5 31.5 1
      vertex 26.5 34.5 1
    endloop
  endfacet
  facet normal 0 0 1
    outer loop
      vertex 23.5 -31.5 1
      vertex -10 -34.5 1
      vertex 0 -34.5 1
    endloop
  endfacet
  facet normal 0 0 1
    outer loop
      vertex -23.5 31.5 1
      vertex 23.5 31.5 1
      vertex 26.5 34.5 1
    endloop
  endfacet
  facet normal 0 0 1
    outer loop
      vertex 0 -34.5 1
      vertex 26.5 -34.5 1
      vertex 23.5 -31.5 1
    endloop
  endfacet
  facet normal 0 0 1
    outer loop
      vertex -26.5 -34.5 1
      vertex -23.5 -31.5 1
      vertex -26.5 -1.11022e-16 1
    endloop
  endfacet
  facet normal 0 0 1
    outer loop
      vertex -26.5 -34.5 1
      vertex -10 -34.5 1
      vertex -23.5 -31.5 1
    endloop
  endfacet
  facet normal 0 0 1
    outer loop
      vertex 23.5 31.5 1
      vertex 26.5 1.11022e-16 1
      vertex 26.5 34.5 1
    endloop
  endfacet
  facet normal 0 0 1
    outer loop
      vertex -23.5 -31.5 1
      vertex -26.5 34.5 1
      vertex -26.5 10 1
    endloop
  endfacet
  facet normal 0 0 1
    outer loop
      vertex -23.5 -31.5 1
      vertex -23.5 31.5 1
      vertex -26.5 34.5 1
    endloop
  endfacet
  facet normal 0 0 1
    outer loop
      vertex 23.5 31.5 1
      vertex 23.5 -31.5 1
      vertex 26.5 -10 1
    endloop
  endfacet
  facet normal 0 0 1
    outer loop
      vertex -27.5 10 3.5
      vertex -27.5 -10 3.5
      vertex -26.5 -10 3.5
    endloop
  endfacet
  facet normal 0 0 1
    outer loop
      vertex -26.5 10 3.5
      vertex -27.5 10 3.5
      vertex -26.5 -10 3.5
    endloop
  endfacet
  facet normal 0 0 1
    outer loop
      vertex -10 -34.5 3.5
      vertex -10 -35.5 3.5
      vertex 0 -35.5 3.5
    endloop
  endfacet
  facet normal 0 0 1
    outer loop
      vertex 0 -34.5 3.5
      vertex -10 -34.5 3.5
      vertex 0 -35.5 3.5
    endloop
  endfacet
  facet normal 0 0 1
    outer loop
      vertex 26.5 10 3.5
      vertex 26.5 -10 3.5
      vertex 27.5 -10 3.5
    endloop
  endfacet
  facet normal 0 0 1
    outer loop
      vertex 27.5 10 3.5
      vertex 26.5 10 3.5
      vertex 27.5 -10 3.5
    endloop
  endfacet
  facet normal 0 -0.939693 -0.34202
    outer loop
      vertex 1.5 34.0171 2.83853
      vertex -1.5 34.0171 2.83853
      vertex -1.5 34.5 1.51184
    endloop
  endfacet
  facet normal 0 -0.939693 -0.34202
    outer loop
      vertex 1.5 34.5 1.51184
      vertex 1.5 34.0171 2.83853
      vertex -1.5 34.5 1.51184
    endloop
  endfacet
  facet normal 0 -0.34202 0.939693
    outer loop
      vertex -1.5 34.9568 3.18055
      vertex -1.5 34.0171 2.83853
      vertex 1.5 34.0171 2.83853
    endloop
  endfacet
  facet normal 0 -0.34202 0.939693
    outer loop
      vertex 1.5 34.9568 3.18055
      vertex -1.5 34.9568 3.18055
      vertex 1.5 34.0171 2.83853
    endloop
  endfacet
endsolid OpenSCAD_Model
