solid OpenSCAD_Model
  facet normal -1 -0 -0
    outer loop
      vertex -40 -35 -1.5
      vertex -40 -35 1.5
      vertex -40 35 -1.5
    endloop
  endfacet
  facet normal -1 0 0
    outer loop
      vertex -40 35 -1.5
      vertex -40 -35 1.5
      vertex -40 35 1.5
    endloop
  endfacet
  facet normal 0 -1 0
    outer loop
      vertex -40 -35 1.5
      vertex -40 -35 -1.5
      vertex -10 -35 -1.5
    endloop
  endfacet
  facet normal 0 -1 0
    outer loop
      vertex -10 -35 1.5
      vertex -40 -35 1.5
      vertex -10 -35 -1.5
    endloop
  endfacet
  facet normal 0 -0 -1
    outer loop
      vertex -35 30 -1.5
      vertex -40 35 -1.5
      vertex -10 35 -1.5
    endloop
  endfacet
  facet normal 0 -0 -1
    outer loop
      vertex -10 35 -1.5
      vertex -10 35.5 -1.5
      vertex 10 35.5 -1.5
    endloop
  endfacet
  facet normal 0 -0 -1
    outer loop
      vertex 35 30 -1.5
      vertex 10 35 -1.5
      vertex 40 35 -1.5
    endloop
  endfacet
  facet normal -0 0 -1
    outer loop
      vertex 35 -30 -1.5
      vertex 40 35 -1.5
      vertex 40 -35 -1.5
    endloop
  endfacet
  facet normal 0 0 -1
    outer loop
      vertex -35 20 -1.5
      vertex -40 35 -1.5
      vertex -35 30 -1.5
    endloop
  endfacet
  facet normal 0 0 -1
    outer loop
      vertex 10 -35 -1.5
      vertex 10 -35.5 -1.5
      vertex -10 -35 -1.5
    endloop
  endfacet
  facet normal 0 0 -1
    outer loop
      vertex 35 20 -1.5
      vertex -35 10 -1.5
      vertex -35 20 -1.5
    endloop
  endfacet
  facet normal 0 -0 -1
    outer loop
      vertex -40 -35 -1.5
      vertex -40 35 -1.5
      vertex -35 -20 -1.5
    endloop
  endfacet
  facet normal 0 0 -1
    outer loop
      vertex -40 -35 -1.5
      vertex -35 -20 -1.5
      vertex -35 -30 -1.5
    endloop
  endfacet
  facet normal -0 0 -1
    outer loop
      vertex -40 -35 -1.5
      vertex -35 -30 -1.5
      vertex -10 -35 -1.5
    endloop
  endfacet
  facet normal -0 0 -1
    outer loop
      vertex 35 -20 -1.5
      vertex 40 35 -1.5
      vertex 35 -30 -1.5
    endloop
  endfacet
  facet normal -0 0 -1
    outer loop
      vertex 10 -35 -1.5
      vertex 35 -30 -1.5
      vertex 40 -35 -1.5
    endloop
  endfacet
  facet normal -0 0 -1
    outer loop
      vertex 35 -10 -1.5
      vertex 40 35 -1.5
      vertex 35 -20 -1.5
    endloop
  endfacet
  facet normal 0 0 -1
    outer loop
      vertex -35 -10 -1.5
      vertex -40 35 -1.5
      vertex -35 10 -1.5
    endloop
  endfacet
  facet normal 0 0 -1
    outer loop
      vertex 35 -30 -1.5
      vertex -10 -35 -1.5
      vertex -35 -30 -1.5
    endloop
  endfacet
  facet normal 0 0 -1
    outer loop
      vertex -35 -20 -1.5
      vertex -40 35 -1.5
      vertex -35 -10 -1.5
    endloop
  endfacet
  facet normal 0 0 -1
    outer loop
      vertex 35 -30 -1.5
      vertex 10 -35 -1.5
      vertex -10 -35 -1.5
    endloop
  endfacet
  facet normal -0 0 -1
    outer loop
      vertex 35 10 -1.5
      vertex 40 35 -1.5
      vertex 35 -10 -1.5
    endloop
  endfacet
  facet normal -0 0 -1
    outer loop
      vertex 35 20 -1.5
      vertex 40 35 -1.5
      vertex 35 10 -1.5
    endloop
  endfacet
  facet normal -0 0 -1
    outer loop
      vertex -35 10 -1.5
      vertex 35 20 -1.5
      vertex 35 10 -1.5
    endloop
  endfacet
  facet normal 0 0 -1
    outer loop
      vertex -35 30 -1.5
      vertex 10 35.5 -1.5
      vertex 10 35 -1.5
    endloop
  endfacet
  facet normal 0 0 -1
    outer loop
      vertex -35 10 -1.5
      vertex -40 35 -1.5
      vertex -35 20 -1.5
    endloop
  endfacet
  facet normal 0 0 -1
    outer loop
      vertex -10 -35 -1.5
      vertex 10 -35.5 -1.5
      vertex -10 -35.5 -1.5
    endloop
  endfacet
  facet normal 0 0 -1
    outer loop
      vertex 35 -10 -1.5
      vertex -35 -20 -1.5
      vertex -35 -10 -1.5
    endloop
  endfacet
  facet normal -0 0 -1
    outer loop
      vertex -35 30 -1.5
      vertex 10 35 -1.5
      vertex 35 30 -1.5
    endloop
  endfacet
  facet normal -0 0 -1
    outer loop
      vertex 35 30 -1.5
      vertex 40 35 -1.5
      vertex 35 20 -1.5
    endloop
  endfacet
  facet normal 0 0 -1
    outer loop
      vertex -35 30 -1.5
      vertex -10 35 -1.5
      vertex 10 35.5 -1.5
    endloop
  endfacet
  facet normal -0 0 -1
    outer loop
      vertex -35 -20 -1.5
      vertex 35 -10 -1.5
      vertex 35 -20 -1.5
    endloop
  endfacet
  facet normal 0 1 0
    outer loop
      vertex -40 35 -1.5
      vertex -40 35 1.5
      vertex -10 35 -1.5
    endloop
  endfacet
  facet normal 0 1 0
    outer loop
      vertex -10 35 -1.5
      vertex -40 35 1.5
      vertex -10 35 1.5
    endloop
  endfacet
  facet normal 0 -0 1
    outer loop
      vertex -35 -30 1.5
      vertex -40 -35 1.5
      vertex -10 -35 1.5
    endloop
  endfacet
  facet normal 0 0 1
    outer loop
      vertex 35 20 1.5
      vertex -35 20 1.5
      vertex -35 10 1.5
    endloop
  endfacet
  facet normal -0 0 1
    outer loop
      vertex 40 -35 1.5
      vertex 10 -32.5 1.5
      vertex 10 -35 1.5
    endloop
  endfacet
  facet normal 0 0 1
    outer loop
      vertex 35 20 1.5
      vertex -35 10 1.5
      vertex 35 10 1.5
    endloop
  endfacet
  facet normal 0 0 1
    outer loop
      vertex -35 20 1.5
      vertex -35 30 1.5
      vertex -40 35 1.5
    endloop
  endfacet
  facet normal 0 -0 1
    outer loop
      vertex 35 -20 1.5
      vertex 35 -30 1.5
      vertex 40 -35 1.5
    endloop
  endfacet
  facet normal 0 -0 1
    outer loop
      vertex -40 35 1.5
      vertex -40 -35 1.5
      vertex -35 -30 1.5
    endloop
  endfacet
  facet normal 0 0 1
    outer loop
      vertex -40 35 1.5
      vertex -35 -30 1.5
      vertex -35 -20 1.5
    endloop
  endfacet
  facet normal 0 0 1
    outer loop
      vertex 40 35 1.5
      vertex 35 -20 1.5
      vertex 40 -35 1.5
    endloop
  endfacet
  facet normal 0 0 1
    outer loop
      vertex -35 30 1.5
      vertex 10 32.5 1.5
      vertex -10 32.5 1.5
    endloop
  endfacet
  facet normal 0 0 1
    outer loop
      vertex 35 -10 1.5
      vertex -35 -20 1.5
      vertex 35 -20 1.5
    endloop
  endfacet
  facet normal 0 0 1
    outer loop
      vertex 35 -10 1.5
      vertex -35 -10 1.5
      vertex -35 -20 1.5
    endloop
  endfacet
  facet normal 0 0 1
    outer loop
      vertex -35 30 1.5
      vertex -10 32.5 1.5
      vertex -40 35 1.5
    endloop
  endfacet
  facet normal 0 0 1
    outer loop
      vertex -40 35 1.5
      vertex -35 -20 1.5
      vertex -35 -10 1.5
    endloop
  endfacet
  facet normal 0 0 1
    outer loop
      vertex -40 35 1.5
      vertex -35 -10 1.5
      vertex -35 10 1.5
    endloop
  endfacet
  facet normal 0 0 1
    outer loop
      vertex -35 30 1.5
      vertex 35 30 1.5
      vertex 10 32.5 1.5
    endloop
  endfacet
  facet normal 0 0 1
    outer loop
      vertex 40 35 1.5
      vertex 35 -10 1.5
      vertex 35 -20 1.5
    endloop
  endfacet
  facet normal 0 0 1
    outer loop
      vertex 40 35 1.5
      vertex 35 10 1.5
      vertex 35 -10 1.5
    endloop
  endfacet
  facet normal 0 0 1
    outer loop
      vertex -40 35 1.5
      vertex -35 10 1.5
      vertex -35 20 1.5
    endloop
  endfacet
  facet normal 0 0 1
    outer loop
      vertex 10 32.5 1.5
      vertex 35 30 1.5
      vertex 10 35 1.5
    endloop
  endfacet
  facet normal 0 0 1
    outer loop
      vertex 40 35 1.5
      vertex 10 35 1.5
      vertex 35 30 1.5
    endloop
  endfacet
  facet normal 0 0 1
    outer loop
      vertex 40 35 1.5
      vertex 35 20 1.5
      vertex 35 10 1.5
    endloop
  endfacet
  facet normal 0 0 1
    outer loop
      vertex 40 35 1.5
      vertex 35 30 1.5
      vertex 35 20 1.5
    endloop
  endfacet
  facet normal 0 0 1
    outer loop
      vertex -10 32.5 1.5
      vertex -10 35 1.5
      vertex -40 35 1.5
    endloop
  endfacet
  facet normal 0 -0 1
    outer loop
      vertex 35 -30 1.5
      vertex 10 -32.5 1.5
      vertex 40 -35 1.5
    endloop
  endfacet
  facet normal 0 0 1
    outer loop
      vertex 35 -30 1.5
      vertex -10 -32.5 1.5
      vertex 10 -32.5 1.5
    endloop
  endfacet
  facet normal -0 0 1
    outer loop
      vertex -10 -32.5 1.5
      vertex -35 -30 1.5
      vertex -10 -35 1.5
    endloop
  endfacet
  facet normal 0 0 1
    outer loop
      vertex 35 -30 1.5
      vertex -35 -30 1.5
      vertex -10 -32.5 1.5
    endloop
  endfacet
  facet normal -1 -0 -0
    outer loop
      vertex -10 -35.5 -1.5
      vertex -10 -35.5 13.5
      vertex -10 -35 -1.5
    endloop
  endfacet
  facet normal -1 0 -0
    outer loop
      vertex -10 -35 1.5
      vertex -10 -35.5 13.5
      vertex -10 -32.5 13.5
    endloop
  endfacet
  facet normal -1 0 0
    outer loop
      vertex -10 -35 -1.5
      vertex -10 -35.5 13.5
      vertex -10 -35 1.5
    endloop
  endfacet
  facet normal -1 -0 0
    outer loop
      vertex -10 -35 1.5
      vertex -10 -32.5 13.5
      vertex -10 -32.5 1.5
    endloop
  endfacet
  facet normal 0 -1 0
    outer loop
      vertex -8 -35.5 8.5
      vertex -10 -35.5 -1.5
      vertex 10 -35.5 -1.5
    endloop
  endfacet
  facet normal 0 -1 0
    outer loop
      vertex -10 -35.5 13.5
      vertex -10 -35.5 -1.5
      vertex -8 -35.5 8.5
    endloop
  endfacet
  facet normal -0 -1 -0
    outer loop
      vertex -8 -35.5 11.5
      vertex 8 -35.5 11.5
      vertex -10 -35.5 13.5
    endloop
  endfacet
  facet normal 0 -1 0
    outer loop
      vertex -10 -35.5 13.5
      vertex -8 -35.5 8.5
      vertex -8 -35.5 11.5
    endloop
  endfacet
  facet normal 0 -1 0
    outer loop
      vertex 10 -35.5 13.5
      vertex 8 -35.5 11.5
      vertex 10 -35.5 -1.5
    endloop
  endfacet
  facet normal 0 -1 0
    outer loop
      vertex 10 -35.5 13.5
      vertex -10 -35.5 13.5
      vertex 8 -35.5 11.5
    endloop
  endfacet
  facet normal 0 -1 0
    outer loop
      vertex 8 -35.5 11.5
      vertex 8 -35.5 8.5
      vertex 10 -35.5 -1.5
    endloop
  endfacet
  facet normal 0 -1 0
    outer loop
      vertex 8 -35.5 8.5
      vertex -8 -35.5 8.5
      vertex 10 -35.5 -1.5
    endloop
  endfacet
  facet normal 1 0 -0
    outer loop
      vertex 10 -35.5 13.5
      vertex 10 -35.5 -1.5
      vertex 10 -35 -1.5
    endloop
  endfacet
  facet normal 1 -0 0
    outer loop
      vertex 10 -32.5 1.5
      vertex 10 -35.5 13.5
      vertex 10 -35 1.5
    endloop
  endfacet
  facet normal 1 -0 0
    outer loop
      vertex 10 -35 1.5
      vertex 10 -35.5 13.5
      vertex 10 -35 -1.5
    endloop
  endfacet
  facet normal 1 0 0
    outer loop
      vertex 10 -32.5 13.5
      vertex 10 -35.5 13.5
      vertex 10 -32.5 1.5
    endloop
  endfacet
  facet normal 0 -1 0
    outer loop
      vertex 10 -35 1.5
      vertex 10 -35 -1.5
      vertex 40 -35 -1.5
    endloop
  endfacet
  facet normal 0 -1 0
    outer loop
      vertex 40 -35 1.5
      vertex 10 -35 1.5
      vertex 40 -35 -1.5
    endloop
  endfacet
  facet normal 1 0 -0
    outer loop
      vertex 40 -35 1.5
      vertex 40 -35 -1.5
      vertex 40 35 -1.5
    endloop
  endfacet
  facet normal 1 0 0
    outer loop
      vertex 40 35 1.5
      vertex 40 -35 1.5
      vertex 40 35 -1.5
    endloop
  endfacet
  facet normal 0 1 0
    outer loop
      vertex 10 35 -1.5
      vertex 10 35 1.5
      vertex 40 35 -1.5
    endloop
  endfacet
  facet normal 0 1 0
    outer loop
      vertex 40 35 -1.5
      vertex 10 35 1.5
      vertex 40 35 1.5
    endloop
  endfacet
  facet normal 1 0 -0
    outer loop
      vertex 10 32.5 13.5
      vertex 10 32.5 1.5
      vertex 10 35 1.5
    endloop
  endfacet
  facet normal 1 0 0
    outer loop
      vertex 10 35.5 13.5
      vertex 10 32.5 13.5
      vertex 10 35 1.5
    endloop
  endfacet
  facet normal 1 0 0
    outer loop
      vertex 10 35 -1.5
      vertex 10 35.5 -1.5
      vertex 10 35 1.5
    endloop
  endfacet
  facet normal 1 0 0
    outer loop
      vertex 10 35.5 -1.5
      vertex 10 35.5 13.5
      vertex 10 35 1.5
    endloop
  endfacet
  facet normal 0 1 -0
    outer loop
      vertex 8 35.5 8.5
      vertex 10 35.5 -1.5
      vertex -8 35.5 8.5
    endloop
  endfacet
  facet normal 0 1 0
    outer loop
      vertex 8 35.5 11.5
      vertex -10 35.5 13.5
      vertex 10 35.5 13.5
    endloop
  endfacet
  facet normal 0 1 0
    outer loop
      vertex -10 35.5 -1.5
      vertex -10 35.5 13.5
      vertex -8 35.5 11.5
    endloop
  endfacet
  facet normal 0 1 0
    outer loop
      vertex -10 35.5 -1.5
      vertex -8 35.5 11.5
      vertex -8 35.5 8.5
    endloop
  endfacet
  facet normal 0 1 0
    outer loop
      vertex -10 35.5 -1.5
      vertex -8 35.5 8.5
      vertex 10 35.5 -1.5
    endloop
  endfacet
  facet normal 0 1 0
    outer loop
      vertex 10 35.5 -1.5
      vertex 8 35.5 8.5
      vertex 10 35.5 13.5
    endloop
  endfacet
  facet normal 0 1 0
    outer loop
      vertex 8 35.5 8.5
      vertex 8 35.5 11.5
      vertex 10 35.5 13.5
    endloop
  endfacet
  facet normal 0 1 0
    outer loop
      vertex -8 35.5 11.5
      vertex -10 35.5 13.5
      vertex 8 35.5 11.5
    endloop
  endfacet
  facet normal -1 -0 -0
    outer loop
      vertex -10 32.5 1.5
      vertex -10 32.5 13.5
      vertex -10 35 1.5
    endloop
  endfacet
  facet normal -1 0 -0
    outer loop
      vertex -10 35 1.5
      vertex -10 32.5 13.5
      vertex -10 35.5 13.5
    endloop
  endfacet
  facet normal -1 -0 0
    outer loop
      vertex -10 35 1.5
      vertex -10 35.5 13.5
      vertex -10 35.5 -1.5
    endloop
  endfacet
  facet normal -1 0 0
    outer loop
      vertex -10 35 1.5
      vertex -10 35.5 -1.5
      vertex -10 35 -1.5
    endloop
  endfacet
  facet normal 1 0 0
    outer loop
      vertex -35 -20 -1.5
      vertex -35 -20 1.5
      vertex -35 -30 1.5
    endloop
  endfacet
  facet normal 1 0 0
    outer loop
      vertex -35 -30 -1.5
      vertex -35 -20 -1.5
      vertex -35 -30 1.5
    endloop
  endfacet
  facet normal 0 -1 0
    outer loop
      vertex 35 -20 -1.5
      vertex 35 -20 1.5
      vertex -35 -20 1.5
    endloop
  endfacet
  facet normal -0 -1 -0
    outer loop
      vertex -35 -20 -1.5
      vertex 35 -20 -1.5
      vertex -35 -20 1.5
    endloop
  endfacet
  facet normal -1 0 0
    outer loop
      vertex 35 -20 1.5
      vertex 35 -20 -1.5
      vertex 35 -30 1.5
    endloop
  endfacet
  facet normal -1 0 0
    outer loop
      vertex 35 -30 1.5
      vertex 35 -20 -1.5
      vertex 35 -30 -1.5
    endloop
  endfacet
  facet normal 0 1 0
    outer loop
      vertex 35 -30 1.5
      vertex 35 -30 -1.5
      vertex -35 -30 1.5
    endloop
  endfacet
  facet normal 0 1 -0
    outer loop
      vertex -35 -30 1.5
      vertex 35 -30 -1.5
      vertex -35 -30 -1.5
    endloop
  endfacet
  facet normal 1 0 0
    outer loop
      vertex -35 10 -1.5
      vertex -35 10 1.5
      vertex -35 -10 1.5
    endloop
  endfacet
  facet normal 1 0 0
    outer loop
      vertex -35 -10 -1.5
      vertex -35 10 -1.5
      vertex -35 -10 1.5
    endloop
  endfacet
  facet normal 0 -1 0
    outer loop
      vertex 35 10 -1.5
      vertex 35 10 1.5
      vertex -35 10 1.5
    endloop
  endfacet
  facet normal -0 -1 -0
    outer loop
      vertex -35 10 -1.5
      vertex 35 10 -1.5
      vertex -35 10 1.5
    endloop
  endfacet
  facet normal -1 0 0
    outer loop
      vertex 35 10 1.5
      vertex 35 10 -1.5
      vertex 35 -10 1.5
    endloop
  endfacet
  facet normal -1 0 0
    outer loop
      vertex 35 -10 1.5
      vertex 35 10 -1.5
      vertex 35 -10 -1.5
    endloop
  endfacet
  facet normal 0 1 0
    outer loop
      vertex 35 -10 1.5
      vertex 35 -10 -1.5
      vertex -35 -10 1.5
    endloop
  endfacet
  facet normal 0 1 -0
    outer loop
      vertex -35 -10 1.5
      vertex 35 -10 -1.5
      vertex -35 -10 -1.5
    endloop
  endfacet
  facet normal 1 0 0
    outer loop
      vertex -35 30 -1.5
      vertex -35 30 1.5
      vertex -35 20 1.5
    endloop
  endfacet
  facet normal 1 0 0
    outer loop
      vertex -35 20 -1.5
      vertex -35 30 -1.5
      vertex -35 20 1.5
    endloop
  endfacet
  facet normal 0 -1 0
    outer loop
      vertex 35 30 -1.5
      vertex 35 30 1.5
      vertex -35 30 1.5
    endloop
  endfacet
  facet normal -0 -1 -0
    outer loop
      vertex -35 30 -1.5
      vertex 35 30 -1.5
      vertex -35 30 1.5
    endloop
  endfacet
  facet normal -1 0 0
    outer loop
      vertex 35 30 1.5
      vertex 35 30 -1.5
      vertex 35 20 1.5
    endloop
  endfacet
  facet normal -1 0 0
    outer loop
      vertex 35 20 1.5
      vertex 35 30 -1.5
      vertex 35 20 -1.5
    endloop
  endfacet
  facet normal 0 1 0
    outer loop
      vertex 35 20 1.5
      vertex 35 20 -1.5
      vertex -35 20 1.5
    endloop
  endfacet
  facet normal 0 1 -0
    outer loop
      vertex -35 20 1.5
      vertex 35 20 -1.5
      vertex -35 20 -1.5
    endloop
  endfacet
  facet normal 0 -1 0
    outer loop
      vertex -8 32.5 8.5
      vertex -10 32.5 1.5
      vertex 10 32.5 1.5
    endloop
  endfacet
  facet normal 0 -1 0
    outer loop
      vertex -10 32.5 13.5
      vertex -10 32.5 1.5
      vertex -8 32.5 8.5
    endloop
  endfacet
  facet normal -0 -1 -0
    outer loop
      vertex -8 32.5 11.5
      vertex 8 32.5 11.5
      vertex -10 32.5 13.5
    endloop
  endfacet
  facet normal 0 -1 0
    outer loop
      vertex -10 32.5 13.5
      vertex -8 32.5 8.5
      vertex -8 32.5 11.5
    endloop
  endfacet
  facet normal 0 -1 0
    outer loop
      vertex 10 32.5 13.5
      vertex 8 32.5 11.5
      vertex 10 32.5 1.5
    endloop
  endfacet
  facet normal 0 -1 0
    outer loop
      vertex 10 32.5 13.5
      vertex -10 32.5 13.5
      vertex 8 32.5 11.5
    endloop
  endfacet
  facet normal 0 -1 0
    outer loop
      vertex 8 32.5 11.5
      vertex 8 32.5 8.5
      vertex 10 32.5 1.5
    endloop
  endfacet
  facet normal 0 -1 0
    outer loop
      vertex 8 32.5 8.5
      vertex -8 32.5 8.5
      vertex 10 32.5 1.5
    endloop
  endfacet
  facet normal 0 1 -0
    outer loop
      vertex 8 -32.5 8.5
      vertex 10 -32.5 1.5
      vertex -8 -32.5 8.5
    endloop
  endfacet
  facet normal 0 1 0
    outer loop
      vertex 8 -32.5 11.5
      vertex -10 -32.5 13.5
      vertex 10 -32.5 13.5
    endloop
  endfacet
  facet normal 0 1 0
    outer loop
      vertex -10 -32.5 1.5
      vertex -10 -32.5 13.5
      vertex -8 -32.5 11.5
    endloop
  endfacet
  facet normal 0 1 0
    outer loop
      vertex -10 -32.5 1.5
      vertex -8 -32.5 11.5
      vertex -8 -32.5 8.5
    endloop
  endfacet
  facet normal 0 1 0
    outer loop
      vertex -10 -32.5 1.5
      vertex -8 -32.5 8.5
      vertex 10 -32.5 1.5
    endloop
  endfacet
  facet normal 0 1 0
    outer loop
      vertex 10 -32.5 1.5
      vertex 8 -32.5 8.5
      vertex 10 -32.5 13.5
    endloop
  endfacet
  facet normal 0 1 0
    outer loop
      vertex 8 -32.5 8.5
      vertex 8 -32.5 11.5
      vertex 10 -32.5 13.5
    endloop
  endfacet
  facet normal 0 1 0
    outer loop
      vertex -8 -32.5 11.5
      vertex -10 -32.5 13.5
      vertex 8 -32.5 11.5
    endloop
  endfacet
  facet normal 0 -0 1
    outer loop
      vertex -10 -32.5 13.5
      vertex -10 -35.5 13.5
      vertex 10 -35.5 13.5
    endloop
  endfacet
  facet normal 0 0 1
    outer loop
      vertex 10 -32.5 13.5
      vertex -10 -32.5 13.5
      vertex 10 -35.5 13.5
    endloop
  endfacet
  facet normal 1 0 0
    outer loop
      vertex -8 -32.5 8.5
      vertex -8 -32.5 11.5
      vertex -8 -35.5 11.5
    endloop
  endfacet
  facet normal 1 0 0
    outer loop
      vertex -8 -35.5 8.5
      vertex -8 -32.5 8.5
      vertex -8 -35.5 11.5
    endloop
  endfacet
  facet normal 0 0 1
    outer loop
      vertex 8 -35.5 8.5
      vertex 8 -32.5 8.5
      vertex -8 -32.5 8.5
    endloop
  endfacet
  facet normal 0 0 1
    outer loop
      vertex -8 -35.5 8.5
      vertex 8 -35.5 8.5
      vertex -8 -32.5 8.5
    endloop
  endfacet
  facet normal -1 0 0
    outer loop
      vertex 8 -32.5 11.5
      vertex 8 -32.5 8.5
      vertex 8 -35.5 11.5
    endloop
  endfacet
  facet normal -1 0 0
    outer loop
      vertex 8 -35.5 11.5
      vertex 8 -32.5 8.5
      vertex 8 -35.5 8.5
    endloop
  endfacet
  facet normal 0 0 -1
    outer loop
      vertex 8 -32.5 11.5
      vertex 8 -35.5 11.5
      vertex -8 -32.5 11.5
    endloop
  endfacet
  facet normal 0 0 -1
    outer loop
      vertex -8 -32.5 11.5
      vertex 8 -35.5 11.5
      vertex -8 -35.5 11.5
    endloop
  endfacet
  facet normal 0 -0 1
    outer loop
      vertex -10 35.5 13.5
      vertex -10 32.5 13.5
      vertex 10 32.5 13.5
    endloop
  endfacet
  facet normal 0 0 1
    outer loop
      vertex 10 35.5 13.5
      vertex -10 35.5 13.5
      vertex 10 32.5 13.5
    endloop
  endfacet
  facet normal 1 0 0
    outer loop
      vertex -8 35.5 8.5
      vertex -8 35.5 11.5
      vertex -8 32.5 11.5
    endloop
  endfacet
  facet normal 1 0 0
    outer loop
      vertex -8 32.5 8.5
      vertex -8 35.5 8.5
      vertex -8 32.5 11.5
    endloop
  endfacet
  facet normal 0 0 -1
    outer loop
      vertex 8 35.5 11.5
      vertex 8 32.5 11.5
      vertex -8 35.5 11.5
    endloop
  endfacet
  facet normal 0 0 -1
    outer loop
      vertex -8 35.5 11.5
      vertex 8 32.5 11.5
      vertex -8 32.5 11.5
    endloop
  endfacet
  facet normal -1 0 0
    outer loop
      vertex 8 35.5 11.5
      vertex 8 35.5 8.5
      vertex 8 32.5 11.5
    endloop
  endfacet
  facet normal -1 0 0
    outer loop
      vertex 8 32.5 11.5
      vertex 8 35.5 8.5
      vertex 8 32.5 8.5
    endloop
  endfacet
  facet normal 0 0 1
    outer loop
      vertex 8 32.5 8.5
      vertex 8 35.5 8.5
      vertex -8 35.5 8.5
    endloop
  endfacet
  facet normal 0 0 1
    outer loop
      vertex -8 32.5 8.5
      vertex 8 32.5 8.5
      vertex -8 35.5 8.5
    endloop
  endfacet
endsolid OpenSCAD_Model
