solid OpenSCAD_Model
  facet normal -1 0 0
    outer loop
      vertex -77.5 -52 -2
      vertex -77.5 -52 2
      vertex -77.5 52 -2
    endloop
  endfacet
  facet normal -1 0 0
    outer loop
      vertex -77.5 52 -2
      vertex -77.5 -52 2
      vertex -77.5 52 2
    endloop
  endfacet
  facet normal 0 -1 0
    outer loop
      vertex -77.5 -52 2
      vertex -77.5 -52 -2
      vertex 77.5 -52 -2
    endloop
  endfacet
  facet normal 0 -1 0
    outer loop
      vertex 77.5 -52 2
      vertex -77.5 -52 2
      vertex 77.5 -52 -2
    endloop
  endfacet
  facet normal 0 0 -1
    outer loop
      vertex -77.5 -52 -2
      vertex -77.5 52 -2
      vertex 77.5 -52 -2
    endloop
  endfacet
  facet normal 0 0 -1
    outer loop
      vertex 77.5 -52 -2
      vertex -77.5 52 -2
      vertex 77.5 52 -2
    endloop
  endfacet
  facet normal 0 1 0
    outer loop
      vertex -77.5 52 -2
      vertex -77.5 52 2
      vertex 77.5 52 -2
    endloop
  endfacet
  facet normal 0 1 0
    outer loop
      vertex 77.5 52 -2
      vertex -77.5 52 2
      vertex 77.5 52 2
    endloop
  endfacet
  facet normal 0 0 1
    outer loop
      vertex -47 -26 2
      vertex -77.5 -52 2
      vertex 77.5 -52 2
    endloop
  endfacet
  facet normal 0 0 1
    outer loop
      vertex 17 26 2
      vertex 47 26 2
      vertex 77.5 52 2
    endloop
  endfacet
  facet normal 0 0 1
    outer loop
      vertex 17 -20 2
      vertex -17 26 2
      vertex -17 20 2
    endloop
  endfacet
  facet normal 0 0 1
    outer loop
      vertex -77.5 52 2
      vertex -77.5 -52 2
      vertex -47 -26 2
    endloop
  endfacet
  facet normal 0 0 1
    outer loop
      vertex -77.5 52 2
      vertex -47 -26 2
      vertex -47 -20 2
    endloop
  endfacet
  facet normal 0 0 1
    outer loop
      vertex 17 -26 2
      vertex -17 -20 2
      vertex 77.5 -52 2
    endloop
  endfacet
  facet normal 0 0 1
    outer loop
      vertex -77.5 52 2
      vertex -47 -20 2
      vertex -17 -20 2
    endloop
  endfacet
  facet normal 0 0 1
    outer loop
      vertex -17 -20 2
      vertex -17 -26 2
      vertex 77.5 -52 2
    endloop
  endfacet
  facet normal 0 0 1
    outer loop
      vertex -77.5 52 2
      vertex -17 -20 2
      vertex -47 20 2
    endloop
  endfacet
  facet normal 0 0 1
    outer loop
      vertex -47 26 2
      vertex -17 26 2
      vertex -77.5 52 2
    endloop
  endfacet
  facet normal 0 0 1
    outer loop
      vertex -77.5 52 2
      vertex -47 20 2
      vertex -47 26 2
    endloop
  endfacet
  facet normal 0 0 1
    outer loop
      vertex 77.5 52 2
      vertex -77.5 52 2
      vertex -17 26 2
    endloop
  endfacet
  facet normal 0 0 1
    outer loop
      vertex 17 -20 2
      vertex -17 20 2
      vertex -47 20 2
    endloop
  endfacet
  facet normal 0 0 1
    outer loop
      vertex -47 20 2
      vertex -17 -20 2
      vertex 17 -26 2
    endloop
  endfacet
  facet normal 0 0 1
    outer loop
      vertex 17 -20 2
      vertex 47 -20 2
      vertex -17 26 2
    endloop
  endfacet
  facet normal 0 0 1
    outer loop
      vertex -47 20 2
      vertex 17 -26 2
      vertex 17 -20 2
    endloop
  endfacet
  facet normal 0 0 1
    outer loop
      vertex 77.5 52 2
      vertex 47 -20 2
      vertex 77.5 -52 2
    endloop
  endfacet
  facet normal 0 0 1
    outer loop
      vertex 17 20 2
      vertex -17 26 2
      vertex 47 -20 2
    endloop
  endfacet
  facet normal 0 0 1
    outer loop
      vertex 47 -20 2
      vertex 47 -26 2
      vertex 77.5 -52 2
    endloop
  endfacet
  facet normal 0 0 1
    outer loop
      vertex 47 20 2
      vertex 17 20 2
      vertex 47 -20 2
    endloop
  endfacet
  facet normal 0 0 1
    outer loop
      vertex 17 26 2
      vertex -17 26 2
      vertex 17 20 2
    endloop
  endfacet
  facet normal 0 0 1
    outer loop
      vertex 77.5 52 2
      vertex -17 26 2
      vertex 17 26 2
    endloop
  endfacet
  facet normal 0 0 1
    outer loop
      vertex 77.5 52 2
      vertex 47 20 2
      vertex 47 -20 2
    endloop
  endfacet
  facet normal 0 0 1
    outer loop
      vertex 77.5 52 2
      vertex 47 26 2
      vertex 47 20 2
    endloop
  endfacet
  facet normal 0 0 1
    outer loop
      vertex -17 -26 2
      vertex -47 -26 2
      vertex 77.5 -52 2
    endloop
  endfacet
  facet normal 0 0 1
    outer loop
      vertex 47 -26 2
      vertex 17 -26 2
      vertex 77.5 -52 2
    endloop
  endfacet
  facet normal 1 0 0
    outer loop
      vertex 77.5 -52 2
      vertex 77.5 -52 -2
      vertex 77.5 52 -2
    endloop
  endfacet
  facet normal 1 0 0
    outer loop
      vertex 77.5 52 2
      vertex 77.5 -52 2
      vertex 77.5 52 -2
    endloop
  endfacet
  facet normal -1 0 0
    outer loop
      vertex -47 -26 2
      vertex -47 -26 50
      vertex -47 -20 2
    endloop
  endfacet
  facet normal -1 0 0
    outer loop
      vertex -47 -20 2
      vertex -47 -26 50
      vertex -47 -20 50
    endloop
  endfacet
  facet normal 0 -1 0
    outer loop
      vertex -47 -26 50
      vertex -47 -26 2
      vertex -17 -26 2
    endloop
  endfacet
  facet normal 0 -1 0
    outer loop
      vertex -17 -26 50
      vertex -47 -26 50
      vertex -17 -26 2
    endloop
  endfacet
  facet normal 1 0 0
    outer loop
      vertex -17 -26 50
      vertex -17 -26 2
      vertex -17 -20 2
    endloop
  endfacet
  facet normal 1 0 0
    outer loop
      vertex -17 -20 50
      vertex -17 -26 50
      vertex -17 -20 2
    endloop
  endfacet
  facet normal 0 1 0
    outer loop
      vertex -47 -20 2
      vertex -47 -20 50
      vertex -17 -20 2
    endloop
  endfacet
  facet normal 0 1 0
    outer loop
      vertex -17 -20 2
      vertex -47 -20 50
      vertex -17 -20 50
    endloop
  endfacet
  facet normal -1 0 0
    outer loop
      vertex -47 20 2
      vertex -47 20 50
      vertex -47 26 2
    endloop
  endfacet
  facet normal -1 0 0
    outer loop
      vertex -47 26 2
      vertex -47 20 50
      vertex -47 26 50
    endloop
  endfacet
  facet normal 0 -1 0
    outer loop
      vertex -47 20 50
      vertex -47 20 2
      vertex -17 20 2
    endloop
  endfacet
  facet normal 0 -1 0
    outer loop
      vertex -17 20 50
      vertex -47 20 50
      vertex -17 20 2
    endloop
  endfacet
  facet normal 1 0 0
    outer loop
      vertex -17 20 50
      vertex -17 20 2
      vertex -17 26 2
    endloop
  endfacet
  facet normal 1 0 0
    outer loop
      vertex -17 26 50
      vertex -17 20 50
      vertex -17 26 2
    endloop
  endfacet
  facet normal 0 1 0
    outer loop
      vertex -47 26 2
      vertex -47 26 50
      vertex -17 26 2
    endloop
  endfacet
  facet normal 0 1 0
    outer loop
      vertex -17 26 2
      vertex -47 26 50
      vertex -17 26 50
    endloop
  endfacet
  facet normal -1 0 0
    outer loop
      vertex 17 -26 2
      vertex 17 -26 50
      vertex 17 -20 2
    endloop
  endfacet
  facet normal -1 0 0
    outer loop
      vertex 17 -20 2
      vertex 17 -26 50
      vertex 17 -20 50
    endloop
  endfacet
  facet normal 0 -1 0
    outer loop
      vertex 17 -26 50
      vertex 17 -26 2
      vertex 47 -26 2
    endloop
  endfacet
  facet normal 0 -1 0
    outer loop
      vertex 47 -26 50
      vertex 17 -26 50
      vertex 47 -26 2
    endloop
  endfacet
  facet normal 1 0 0
    outer loop
      vertex 47 -26 50
      vertex 47 -26 2
      vertex 47 -20 2
    endloop
  endfacet
  facet normal 1 0 0
    outer loop
      vertex 47 -20 50
      vertex 47 -26 50
      vertex 47 -20 2
    endloop
  endfacet
  facet normal 0 1 0
    outer loop
      vertex 17 -20 2
      vertex 17 -20 50
      vertex 47 -20 2
    endloop
  endfacet
  facet normal 0 1 0
    outer loop
      vertex 47 -20 2
      vertex 17 -20 50
      vertex 47 -20 50
    endloop
  endfacet
  facet normal -1 0 0
    outer loop
      vertex 17 20 2
      vertex 17 20 50
      vertex 17 26 2
    endloop
  endfacet
  facet normal -1 0 0
    outer loop
      vertex 17 26 2
      vertex 17 20 50
      vertex 17 26 50
    endloop
  endfacet
  facet normal 0 -1 0
    outer loop
      vertex 17 20 50
      vertex 17 20 2
      vertex 47 20 2
    endloop
  endfacet
  facet normal 0 -1 0
    outer loop
      vertex 47 20 50
      vertex 17 20 50
      vertex 47 20 2
    endloop
  endfacet
  facet normal 1 0 0
    outer loop
      vertex 47 20 50
      vertex 47 20 2
      vertex 47 26 2
    endloop
  endfacet
  facet normal 1 0 0
    outer loop
      vertex 47 26 50
      vertex 47 20 50
      vertex 47 26 2
    endloop
  endfacet
  facet normal 0 1 0
    outer loop
      vertex 17 26 2
      vertex 17 26 50
      vertex 47 26 2
    endloop
  endfacet
  facet normal 0 1 0
    outer loop
      vertex 47 26 2
      vertex 17 26 50
      vertex 47 26 50
    endloop
  endfacet
  facet normal 0 0 1
    outer loop
      vertex -47 -20 50
      vertex -47 -26 50
      vertex -17 -26 50
    endloop
  endfacet
  facet normal 0 0 1
    outer loop
      vertex -17 -20 50
      vertex -47 -20 50
      vertex -17 -26 50
    endloop
  endfacet
  facet normal 0 0 1
    outer loop
      vertex -47 26 50
      vertex -47 20 50
      vertex -17 20 50
    endloop
  endfacet
  facet normal 0 0 1
    outer loop
      vertex -17 26 50
      vertex -47 26 50
      vertex -17 20 50
    endloop
  endfacet
  facet normal 0 0 1
    outer loop
      vertex 17 -20 50
      vertex 17 -26 50
      vertex 47 -26 50
    endloop
  endfacet
  facet normal 0 0 1
    outer loop
      vertex 47 -20 50
      vertex 17 -20 50
      vertex 47 -26 50
    endloop
  endfacet
  facet normal 0 0 1
    outer loop
      vertex 17 26 50
      vertex 17 20 50
      vertex 47 20 50
    endloop
  endfacet
  facet normal 0 0 1
    outer loop
      vertex 47 26 50
      vertex 17 26 50
      vertex 47 20 50
    endloop
  endfacet
endsolid OpenSCAD_Model
