solid OpenSCAD_Model
  facet normal -1 0 0
    outer loop
      vertex -5 -5 -5
      vertex -5 -5 5
      vertex -5 5 -5
    endloop
  endfacet
  facet normal -1 0 0
    outer loop
      vertex -5 5 -5
      vertex -5 -5 5
      vertex -5 5 5
    endloop
  endfacet
  facet normal 0 -1 0
    outer loop
      vertex -5 -5 5
      vertex -5 -5 -5
      vertex 5 -5 -5
    endloop
  endfacet
  facet normal 0 -1 0
    outer loop
      vertex 5 -5 5
      vertex -5 -5 5
      vertex 5 -5 -5
    endloop
  endfacet
  facet normal 0 0 -1
    outer loop
      vertex -5 -5 -5
      vertex -5 5 -5
      vertex 5 -5 -5
    endloop
  endfacet
  facet normal 0 0 -1
    outer loop
      vertex 5 -5 -5
      vertex -5 5 -5
      vertex 5 5 -5
    endloop
  endfacet
  facet normal 0 1 0
    outer loop
      vertex 0.927051 5 1.85317
      vertex -5 5 5
      vertex 5 5 5
    endloop
  endfacet
  facet normal 0 1 0
    outer loop
      vertex -5 5 -5
      vertex -5 5 5
      vertex -3 5 -1
    endloop
  endfacet
  facet normal 0 1 0
    outer loop
      vertex -5 5 -5
      vertex -3 5 -1
      vertex -2.42705 5 -2.76336
    endloop
  endfacet
  facet normal 0 1 0
    outer loop
      vertex -5 5 -5
      vertex -2.42705 5 -2.76336
      vertex -0.927051 5 -3.85317
    endloop
  endfacet
  facet normal 0 1 0
    outer loop
      vertex -5 5 -5
      vertex -0.927051 5 -3.85317
      vertex 5 5 -5
    endloop
  endfacet
  facet normal 0 1 0
    outer loop
      vertex -0.927051 5 -3.85317
      vertex 0.927051 5 -3.85317
      vertex 5 5 -5
    endloop
  endfacet
  facet normal 0 1 0
    outer loop
      vertex 3 5 -1
      vertex 5 5 -5
      vertex 2.42705 5 -2.76336
    endloop
  endfacet
  facet normal 0 1 0
    outer loop
      vertex -2.42705 5 0.763356
      vertex -5 5 5
      vertex -0.927051 5 1.85317
    endloop
  endfacet
  facet normal 0 1 0
    outer loop
      vertex 5 5 -5
      vertex 3 5 -1
      vertex 5 5 5
    endloop
  endfacet
  facet normal 0 1 0
    outer loop
      vertex 3 5 -1
      vertex 2.42705 5 0.763356
      vertex 5 5 5
    endloop
  endfacet
  facet normal 0 1 0
    outer loop
      vertex 2.42705 5 0.763356
      vertex 0.927051 5 1.85317
      vertex 5 5 5
    endloop
  endfacet
  facet normal 0 1 0
    outer loop
      vertex -0.927051 5 1.85317
      vertex -5 5 5
      vertex 0.927051 5 1.85317
    endloop
  endfacet
  facet normal 0 1 0
    outer loop
      vertex -3 5 -1
      vertex -5 5 5
      vertex -2.42705 5 0.763356
    endloop
  endfacet
  facet normal 0 1 0
    outer loop
      vertex 2.42705 5 -2.76336
      vertex 5 5 -5
      vertex 0.927051 5 -3.85317
    endloop
  endfacet
  facet normal 0 0 1
    outer loop
      vertex 0.95684 -4.19219 5
      vertex -5 -5 5
      vertex 5 -5 5
    endloop
  endfacet
  facet normal 0 0 1
    outer loop
      vertex -4.3 0 5
      vertex -5 -5 5
      vertex -3.87417 -1.8657 5
    endloop
  endfacet
  facet normal 0 0 1
    outer loop
      vertex -3.87417 1.8657 5
      vertex -2.68101 3.36187 5
      vertex -5 5 5
    endloop
  endfacet
  facet normal 0 0 1
    outer loop
      vertex -5 5 5
      vertex -5 -5 5
      vertex -4.3 0 5
    endloop
  endfacet
  facet normal 0 0 1
    outer loop
      vertex 0.95684 4.19219 5
      vertex 2.68101 3.36187 5
      vertex 5 5 5
    endloop
  endfacet
  facet normal 0 0 1
    outer loop
      vertex 2.68101 -3.36187 5
      vertex 0.95684 -4.19219 5
      vertex 5 -5 5
    endloop
  endfacet
  facet normal 0 0 1
    outer loop
      vertex -0.95684 4.19219 5
      vertex -5 5 5
      vertex -2.68101 3.36187 5
    endloop
  endfacet
  facet normal 0 0 1
    outer loop
      vertex 5 5 5
      vertex -5 5 5
      vertex -0.95684 4.19219 5
    endloop
  endfacet
  facet normal 0 0 1
    outer loop
      vertex 5 5 5
      vertex -0.95684 4.19219 5
      vertex 0.95684 4.19219 5
    endloop
  endfacet
  facet normal 0 0 1
    outer loop
      vertex 3.87417 -1.8657 5
      vertex 2.68101 -3.36187 5
      vertex 5 -5 5
    endloop
  endfacet
  facet normal 0 0 1
    outer loop
      vertex 5 5 5
      vertex 2.68101 3.36187 5
      vertex 3.87417 1.8657 5
    endloop
  endfacet
  facet normal 0 0 1
    outer loop
      vertex 5 5 5
      vertex 4.3 0 5
      vertex 5 -5 5
    endloop
  endfacet
  facet normal 0 0 1
    outer loop
      vertex 5 5 5
      vertex 3.87417 1.8657 5
      vertex 4.3 0 5
    endloop
  endfacet
  facet normal 0 0 1
    outer loop
      vertex -0.95684 -4.19219 5
      vertex -5 -5 5
      vertex 0.95684 -4.19219 5
    endloop
  endfacet
  facet normal 0 0 1
    outer loop
      vertex -2.68101 -3.36187 5
      vertex -5 -5 5
      vertex -0.95684 -4.19219 5
    endloop
  endfacet
  facet normal 0 0 1
    outer loop
      vertex -3.87417 -1.8657 5
      vertex -5 -5 5
      vertex -2.68101 -3.36187 5
    endloop
  endfacet
  facet normal 0 0 1
    outer loop
      vertex -4.3 0 5
      vertex -3.87417 1.8657 5
      vertex -5 5 5
    endloop
  endfacet
  facet normal 0 0 1
    outer loop
      vertex 4.3 0 5
      vertex 3.87417 -1.8657 5
      vertex 5 -5 5
    endloop
  endfacet
  facet normal 1 0 0
    outer loop
      vertex 5 -5 5
      vertex 5 -5 -5
      vertex 5 5 -5
    endloop
  endfacet
  facet normal 1 0 0
    outer loop
      vertex 5 5 5
      vertex 5 -5 5
      vertex 5 5 -5
    endloop
  endfacet
  facet normal 0.951057 -6.86155e-17 -0.309017
    outer loop
      vertex -3 5 -1
      vertex -2.42705 5 0.763356
      vertex -2.42705 3.48417 0.763356
    endloop
  endfacet
  facet normal 0.951057 -6.86155e-17 -0.309017
    outer loop
      vertex -3 2.96187 -1
      vertex -3 5 -1
      vertex -2.68101 3.36187 -0.0182373
    endloop
  endfacet
  facet normal 0.951057 -6.86155e-17 -0.309017
    outer loop
      vertex -2.68101 3.36187 -0.0182373
      vertex -3 5 -1
      vertex -2.42705 3.48417 0.763356
    endloop
  endfacet
  facet normal 0.951057 6.86155e-17 0.309017
    outer loop
      vertex -2.42705 -3 -2.76336
      vertex -2.67508 3.36473 -2
      vertex -2.67508 -3 -2
    endloop
  endfacet
  facet normal 0.951057 6.86155e-17 0.309017
    outer loop
      vertex -2.42705 5 -2.76336
      vertex -2.67508 3.36473 -2
      vertex -2.42705 -3 -2.76336
    endloop
  endfacet
  facet normal 0.951057 6.86155e-17 0.309017
    outer loop
      vertex -2.68101 3.36187 -1.98176
      vertex -2.67508 3.36473 -2
      vertex -2.42705 5 -2.76336
    endloop
  endfacet
  facet normal 0.951057 6.86155e-17 0.309017
    outer loop
      vertex -3 5 -1
      vertex -2.68101 3.36187 -1.98176
      vertex -2.42705 5 -2.76336
    endloop
  endfacet
  facet normal 0.951057 6.86155e-17 0.309017
    outer loop
      vertex -3 2.96187 -1
      vertex -2.68101 3.36187 -1.98176
      vertex -3 5 -1
    endloop
  endfacet
  facet normal 0.587785 -1.79638e-16 -0.809017
    outer loop
      vertex -0.927051 5 1.85317
      vertex -0.927051 4.19219 1.85317
      vertex -2.42705 5 0.763356
    endloop
  endfacet
  facet normal 0.587785 -1.79638e-16 -0.809017
    outer loop
      vertex -2.42705 5 0.763356
      vertex -0.927051 4.19219 1.85317
      vertex -0.95684 4.19219 1.83153
    endloop
  endfacet
  facet normal 0.587785 -1.79638e-16 -0.809017
    outer loop
      vertex -2.42705 5 0.763356
      vertex -0.95684 4.19219 1.83153
      vertex -2.42705 3.48417 0.763356
    endloop
  endfacet
  facet normal 0 -2.22045e-16 -1
    outer loop
      vertex 0.927051 5 1.85317
      vertex 0.927051 4.19219 1.85317
      vertex -0.927051 5 1.85317
    endloop
  endfacet
  facet normal 0 -2.22045e-16 -1
    outer loop
      vertex -0.927051 5 1.85317
      vertex 0.927051 4.19219 1.85317
      vertex -0.927051 4.19219 1.85317
    endloop
  endfacet
  facet normal -0.587785 -1.79638e-16 -0.809017
    outer loop
      vertex 2.42705 5 0.763356
      vertex 2.42705 3.48417 0.763356
      vertex 0.927051 5 1.85317
    endloop
  endfacet
  facet normal -0.587785 -1.79638e-16 -0.809017
    outer loop
      vertex 0.927051 5 1.85317
      vertex 2.42705 3.48417 0.763356
      vertex 0.95684 4.19219 1.83153
    endloop
  endfacet
  facet normal -0.587785 -1.79638e-16 -0.809017
    outer loop
      vertex 0.927051 5 1.85317
      vertex 0.95684 4.19219 1.83153
      vertex 0.927051 4.19219 1.85317
    endloop
  endfacet
  facet normal -0.951057 -6.86155e-17 -0.309017
    outer loop
      vertex 3 5 -1
      vertex 3 2.96187 -1
      vertex 2.42705 5 0.763356
    endloop
  endfacet
  facet normal -0.951057 -6.86155e-17 -0.309017
    outer loop
      vertex 2.42705 5 0.763356
      vertex 3 2.96187 -1
      vertex 2.68101 3.36187 -0.0182373
    endloop
  endfacet
  facet normal -0.951057 -6.86155e-17 -0.309017
    outer loop
      vertex 2.42705 5 0.763356
      vertex 2.68101 3.36187 -0.0182373
      vertex 2.42705 3.48417 0.763356
    endloop
  endfacet
  facet normal -0.951057 6.86155e-17 0.309017
    outer loop
      vertex 3 5 -1
      vertex 2.68101 3.36187 -1.98176
      vertex 3 2.96187 -1
    endloop
  endfacet
  facet normal -0.951057 6.86155e-17 0.309017
    outer loop
      vertex 2.67508 3.36473 -2
      vertex 2.68101 3.36187 -1.98176
      vertex 3 5 -1
    endloop
  endfacet
  facet normal -0.951057 6.86155e-17 0.309017
    outer loop
      vertex 2.67508 3.36473 -2
      vertex 3 5 -1
      vertex 2.42705 5 -2.76336
    endloop
  endfacet
  facet normal -0.951057 6.86155e-17 0.309017
    outer loop
      vertex 2.67508 3.36473 -2
      vertex 2.42705 5 -2.76336
      vertex 2.67508 -3 -2
    endloop
  endfacet
  facet normal -0.951057 6.86155e-17 0.309017
    outer loop
      vertex 2.42705 5 -2.76336
      vertex 2.42705 -3 -2.76336
      vertex 2.67508 -3 -2
    endloop
  endfacet
  facet normal -0.587785 1.79638e-16 0.809017
    outer loop
      vertex 2.42705 -3 -2.76336
      vertex 2.42705 5 -2.76336
      vertex 0.927051 5 -3.85317
    endloop
  endfacet
  facet normal -0.587785 1.79638e-16 0.809017
    outer loop
      vertex 0.927051 -3 -3.85317
      vertex 2.42705 -3 -2.76336
      vertex 0.927051 5 -3.85317
    endloop
  endfacet
  facet normal 0 2.22045e-16 1
    outer loop
      vertex 0.927051 -3 -3.85317
      vertex 0.927051 5 -3.85317
      vertex -0.927051 5 -3.85317
    endloop
  endfacet
  facet normal 0 2.22045e-16 1
    outer loop
      vertex -0.927051 -3 -3.85317
      vertex 0.927051 -3 -3.85317
      vertex -0.927051 5 -3.85317
    endloop
  endfacet
  facet normal 0.587785 1.79638e-16 0.809017
    outer loop
      vertex -0.927051 -3 -3.85317
      vertex -0.927051 5 -3.85317
      vertex -2.42705 5 -2.76336
    endloop
  endfacet
  facet normal 0.587785 1.79638e-16 0.809017
    outer loop
      vertex -2.42705 -3 -2.76336
      vertex -0.927051 -3 -3.85317
      vertex -2.42705 5 -2.76336
    endloop
  endfacet
  facet normal 0.781831 0.62349 0
    outer loop
      vertex -3.87417 -1.8657 5
      vertex -2.68101 -3.36187 5
      vertex -2.68101 -3.36187 -2
    endloop
  endfacet
  facet normal 0.781831 0.62349 0
    outer loop
      vertex -2.96959 -3 -0.906413
      vertex -3.87417 -1.8657 5
      vertex -2.68101 -3.36187 -2
    endloop
  endfacet
  facet normal 0.781831 0.62349 0
    outer loop
      vertex -3.87417 -1.8657 -2
      vertex -3 -2.96187 -1
      vertex -2.68101 -3.36187 -2
    endloop
  endfacet
  facet normal 0.781831 0.62349 0
    outer loop
      vertex -3.87417 -1.8657 -2
      vertex -3.87417 -1.8657 5
      vertex -3 -2.96187 -1
    endloop
  endfacet
  facet normal 0.781831 0.62349 0
    outer loop
      vertex -3 -2.96187 -1
      vertex -2.96959 -3 -1.09359
      vertex -2.68101 -3.36187 -2
    endloop
  endfacet
  facet normal 0.781831 0.62349 0
    outer loop
      vertex -2.96959 -3 -1.09359
      vertex -2.96959 -3 -0.906413
      vertex -2.68101 -3.36187 -2
    endloop
  endfacet
  facet normal 0.781831 0.62349 0
    outer loop
      vertex -2.96959 -3 -0.906413
      vertex -3 -2.96187 -1
      vertex -3.87417 -1.8657 5
    endloop
  endfacet
  facet normal 0.974928 0.222521 0
    outer loop
      vertex -4.3 0 5
      vertex -3.87417 -1.8657 5
      vertex -3.87417 -1.8657 -2
    endloop
  endfacet
  facet normal 0.974928 0.222521 0
    outer loop
      vertex -4.3 0 -2
      vertex -4.3 0 5
      vertex -3.87417 -1.8657 -2
    endloop
  endfacet
  facet normal 0.433884 0.900969 0
    outer loop
      vertex -0.95684 -4.19219 5
      vertex -0.95684 -4.19219 -2
      vertex -2.68101 -3.36187 5
    endloop
  endfacet
  facet normal 0.433884 0.900969 0
    outer loop
      vertex -2.68101 -3.36187 5
      vertex -0.95684 -4.19219 -2
      vertex -2.68101 -3.36187 -2
    endloop
  endfacet
  facet normal 0 1 0
    outer loop
      vertex 0.95684 -4.19219 5
      vertex 0.95684 -4.19219 -2
      vertex -0.95684 -4.19219 5
    endloop
  endfacet
  facet normal 0 1 0
    outer loop
      vertex -0.95684 -4.19219 5
      vertex 0.95684 -4.19219 -2
      vertex -0.95684 -4.19219 -2
    endloop
  endfacet
  facet normal -0.433884 0.900969 0
    outer loop
      vertex 2.68101 -3.36187 5
      vertex 2.68101 -3.36187 -2
      vertex 0.95684 -4.19219 5
    endloop
  endfacet
  facet normal -0.433884 0.900969 0
    outer loop
      vertex 0.95684 -4.19219 5
      vertex 2.68101 -3.36187 -2
      vertex 0.95684 -4.19219 -2
    endloop
  endfacet
  facet normal -0.781831 0.62349 0
    outer loop
      vertex 3.87417 -1.8657 5
      vertex 3.87417 -1.8657 -2
      vertex 2.68101 -3.36187 5
    endloop
  endfacet
  facet normal -0.781831 0.62349 0
    outer loop
      vertex 2.96959 -3 -1.09359
      vertex 3.87417 -1.8657 -2
      vertex 2.68101 -3.36187 -2
    endloop
  endfacet
  facet normal -0.781831 0.62349 0
    outer loop
      vertex 3 -2.96187 -1
      vertex 3.87417 -1.8657 -2
      vertex 2.96959 -3 -1.09359
    endloop
  endfacet
  facet normal -0.781831 0.62349 0
    outer loop
      vertex 2.68101 -3.36187 5
      vertex 2.96959 -3 -1.09359
      vertex 2.68101 -3.36187 -2
    endloop
  endfacet
  facet normal -0.781831 0.62349 0
    outer loop
      vertex 2.68101 -3.36187 5
      vertex 3.87417 -1.8657 -2
      vertex 3 -2.96187 -1
    endloop
  endfacet
  facet normal -0.781831 0.62349 0
    outer loop
      vertex 2.68101 -3.36187 5
      vertex 3 -2.96187 -1
      vertex 2.96959 -3 -0.906413
    endloop
  endfacet
  facet normal -0.781831 0.62349 0
    outer loop
      vertex 2.68101 -3.36187 5
      vertex 2.96959 -3 -0.906413
      vertex 2.96959 -3 -1.09359
    endloop
  endfacet
  facet normal -0.974928 0.222521 0
    outer loop
      vertex 4.3 0 5
      vertex 4.3 0 -2
      vertex 3.87417 -1.8657 5
    endloop
  endfacet
  facet normal -0.974928 0.222521 0
    outer loop
      vertex 3.87417 -1.8657 5
      vertex 4.3 0 -2
      vertex 3.87417 -1.8657 -2
    endloop
  endfacet
  facet normal -0.974928 -0.222521 0
    outer loop
      vertex 4.3 0 5
      vertex 3.87417 1.8657 5
      vertex 4.3 0 -2
    endloop
  endfacet
  facet normal -0.974928 -0.222521 0
    outer loop
      vertex 4.3 0 -2
      vertex 3.87417 1.8657 5
      vertex 3.87417 1.8657 -2
    endloop
  endfacet
  facet normal -0.781831 -0.62349 0
    outer loop
      vertex 3.87417 1.8657 5
      vertex 2.68101 3.36187 5
      vertex 3.87417 1.8657 -2
    endloop
  endfacet
  facet normal -0.781831 -0.62349 0
    outer loop
      vertex 3.87417 1.8657 -2
      vertex 2.68101 3.36187 5
      vertex 2.68101 3.36187 -0.0182373
    endloop
  endfacet
  facet normal -0.781831 -0.62349 0
    outer loop
      vertex 3.87417 1.8657 -2
      vertex 2.68101 3.36187 -0.0182373
      vertex 3 2.96187 -1
    endloop
  endfacet
  facet normal -0.781831 -0.62349 0
    outer loop
      vertex 3.87417 1.8657 -2
      vertex 3 2.96187 -1
      vertex 2.68101 3.36187 -1.98176
    endloop
  endfacet
  facet normal -0.781831 -0.62349 0
    outer loop
      vertex 3.87417 1.8657 -2
      vertex 2.68101 3.36187 -1.98176
      vertex 2.68101 3.36187 -2
    endloop
  endfacet
  facet normal -0.433884 -0.900969 0
    outer loop
      vertex 2.42705 3.48417 0.763356
      vertex 2.68101 3.36187 -0.0182373
      vertex 2.68101 3.36187 5
    endloop
  endfacet
  facet normal -0.433884 -0.900969 0
    outer loop
      vertex 0.95684 4.19219 5
      vertex 2.42705 3.48417 0.763356
      vertex 2.68101 3.36187 5
    endloop
  endfacet
  facet normal -0.433884 -0.900969 0
    outer loop
      vertex 0.95684 4.19219 1.83153
      vertex 2.42705 3.48417 0.763356
      vertex 0.95684 4.19219 5
    endloop
  endfacet
  facet normal 0 -1 0
    outer loop
      vertex -0.927051 4.19219 1.85317
      vertex 0.927051 4.19219 1.85317
      vertex 0.95684 4.19219 5
    endloop
  endfacet
  facet normal 0 -1 0
    outer loop
      vertex 0.95684 4.19219 5
      vertex 0.927051 4.19219 1.85317
      vertex 0.95684 4.19219 1.83153
    endloop
  endfacet
  facet normal 0 -1 0
    outer loop
      vertex -0.927051 4.19219 1.85317
      vertex 0.95684 4.19219 5
      vertex -0.95684 4.19219 5
    endloop
  endfacet
  facet normal 0 -1 0
    outer loop
      vertex -0.927051 4.19219 1.85317
      vertex -0.95684 4.19219 5
      vertex -0.95684 4.19219 1.83153
    endloop
  endfacet
  facet normal 0.433884 -0.900969 0
    outer loop
      vertex -2.42705 3.48417 0.763356
      vertex -0.95684 4.19219 1.83153
      vertex -0.95684 4.19219 5
    endloop
  endfacet
  facet normal 0.433884 -0.900969 0
    outer loop
      vertex -2.68101 3.36187 -0.0182373
      vertex -2.42705 3.48417 0.763356
      vertex -2.68101 3.36187 5
    endloop
  endfacet
  facet normal 0.433884 -0.900969 0
    outer loop
      vertex -2.68101 3.36187 5
      vertex -2.42705 3.48417 0.763356
      vertex -0.95684 4.19219 5
    endloop
  endfacet
  facet normal 0.781831 -0.62349 0
    outer loop
      vertex -2.68101 3.36187 -2
      vertex -2.68101 3.36187 -1.98176
      vertex -3 2.96187 -1
    endloop
  endfacet
  facet normal 0.781831 -0.62349 0
    outer loop
      vertex -3.87417 1.8657 -2
      vertex -2.68101 3.36187 -2
      vertex -3 2.96187 -1
    endloop
  endfacet
  facet normal 0.781831 -0.62349 0
    outer loop
      vertex -2.68101 3.36187 -0.0182373
      vertex -2.68101 3.36187 5
      vertex -3 2.96187 -1
    endloop
  endfacet
  facet normal 0.781831 -0.62349 0
    outer loop
      vertex -2.68101 3.36187 5
      vertex -3.87417 1.8657 5
      vertex -3 2.96187 -1
    endloop
  endfacet
  facet normal 0.781831 -0.62349 0
    outer loop
      vertex -3.87417 1.8657 5
      vertex -3.87417 1.8657 -2
      vertex -3 2.96187 -1
    endloop
  endfacet
  facet normal 0.974928 -0.222521 0
    outer loop
      vertex -3.87417 1.8657 -2
      vertex -3.87417 1.8657 5
      vertex -4.3 0 5
    endloop
  endfacet
  facet normal 0.974928 -0.222521 0
    outer loop
      vertex -4.3 0 -2
      vertex -3.87417 1.8657 -2
      vertex -4.3 0 5
    endloop
  endfacet
  facet normal 0.433884 -0.900969 0
    outer loop
      vertex -2.67508 3.36473 -2
      vertex -2.68101 3.36187 -1.98176
      vertex -2.68101 3.36187 -2
    endloop
  endfacet
  facet normal 0 1 -2.22045e-16
    outer loop
      vertex 2.42705 -3 -2.76336
      vertex 0.927051 -3 -3.85317
      vertex 2.67508 -3 -2
    endloop
  endfacet
  facet normal 0 1 -2.22045e-16
    outer loop
      vertex 2.67508 -3 -2
      vertex 0.927051 -3 -3.85317
      vertex -0.927051 -3 -3.85317
    endloop
  endfacet
  facet normal 0 1 -2.22045e-16
    outer loop
      vertex 2.67508 -3 -2
      vertex -0.927051 -3 -3.85317
      vertex -2.42705 -3 -2.76336
    endloop
  endfacet
  facet normal 0 1 -2.22045e-16
    outer loop
      vertex 2.67508 -3 -2
      vertex -2.42705 -3 -2.76336
      vertex -2.67508 -3 -2
    endloop
  endfacet
  facet normal 0 0 1
    outer loop
      vertex -2.67508 -3 -2
      vertex -2.68101 -3.36187 -2
      vertex -0.95684 -4.19219 -2
    endloop
  endfacet
  facet normal 0 0 1
    outer loop
      vertex -2.67508 -3 -2
      vertex -2.67508 3.36473 -2
      vertex -3.87417 -1.8657 -2
    endloop
  endfacet
  facet normal 0 0 1
    outer loop
      vertex 2.67508 -3 -2
      vertex 0.95684 -4.19219 -2
      vertex 2.68101 -3.36187 -2
    endloop
  endfacet
  facet normal 0 0 1
    outer loop
      vertex 2.67508 -3 -2
      vertex -0.95684 -4.19219 -2
      vertex 0.95684 -4.19219 -2
    endloop
  endfacet
  facet normal 0 0 1
    outer loop
      vertex 2.67508 -3 -2
      vertex -2.67508 -3 -2
      vertex -0.95684 -4.19219 -2
    endloop
  endfacet
  facet normal 0 0 1
    outer loop
      vertex 3.87417 -1.8657 -2
      vertex 2.67508 -3 -2
      vertex 2.68101 -3.36187 -2
    endloop
  endfacet
  facet normal 0 0 1
    outer loop
      vertex -3.87417 -1.8657 -2
      vertex -2.68101 -3.36187 -2
      vertex -2.67508 -3 -2
    endloop
  endfacet
  facet normal 0 0 1
    outer loop
      vertex -2.68101 3.36187 -2
      vertex -3.87417 -1.8657 -2
      vertex -2.67508 3.36473 -2
    endloop
  endfacet
  facet normal 0 0 1
    outer loop
      vertex -3.87417 1.8657 -2
      vertex -3.87417 -1.8657 -2
      vertex -2.68101 3.36187 -2
    endloop
  endfacet
  facet normal 0 0 1
    outer loop
      vertex -4.3 0 -2
      vertex -3.87417 -1.8657 -2
      vertex -3.87417 1.8657 -2
    endloop
  endfacet
  facet normal 0 0 1
    outer loop
      vertex 2.67508 3.36473 -2
      vertex 3.87417 1.8657 -2
      vertex 2.68101 3.36187 -2
    endloop
  endfacet
  facet normal 0 0 1
    outer loop
      vertex 2.67508 3.36473 -2
      vertex 4.3 0 -2
      vertex 3.87417 1.8657 -2
    endloop
  endfacet
  facet normal 0 0 1
    outer loop
      vertex 2.67508 3.36473 -2
      vertex 3.87417 -1.8657 -2
      vertex 4.3 0 -2
    endloop
  endfacet
  facet normal 0 0 1
    outer loop
      vertex 2.67508 3.36473 -2
      vertex 2.67508 -3 -2
      vertex 3.87417 -1.8657 -2
    endloop
  endfacet
  facet normal -0.433884 -0.900969 0
    outer loop
      vertex 2.68101 3.36187 -2
      vertex 2.68101 3.36187 -1.98176
      vertex 2.67508 3.36473 -2
    endloop
  endfacet
  facet normal 0.951057 -6.86155e-17 -0.309017
    outer loop
      vertex -3 -2.96187 -1
      vertex -2.96959 -3 -0.906413
      vertex -3 -3 -1
    endloop
  endfacet
  facet normal 0.951057 6.86155e-17 0.309017
    outer loop
      vertex -2.96959 -3 -1.09359
      vertex -3 -2.96187 -1
      vertex -3 -3 -1
    endloop
  endfacet
  facet normal 0 1 -2.22045e-16
    outer loop
      vertex -2.96959 -3 -0.906413
      vertex -2.96959 -3 -1.09359
      vertex -3 -3 -1
    endloop
  endfacet
  facet normal 0 1 -2.22045e-16
    outer loop
      vertex 2.96959 -3 -0.906413
      vertex 3 -3 -1
      vertex 2.96959 -3 -1.09359
    endloop
  endfacet
  facet normal -0.951057 6.86155e-17 0.309017
    outer loop
      vertex 3 -3 -1
      vertex 3 -2.96187 -1
      vertex 2.96959 -3 -1.09359
    endloop
  endfacet
  facet normal -0.951057 -6.86155e-17 -0.309017
    outer loop
      vertex 3 -2.96187 -1
      vertex 3 -3 -1
      vertex 2.96959 -3 -0.906413
    endloop
  endfacet
endsolid OpenSCAD_Model
